<svg xmlns="http://www.w3.org/2000/svg" viewBox="0 0 16 16">
  <title>edit</title>
  <g id="Layer_2" data-name="Layer 2">
    <g id="Слой_1" data-name="Слой 1">
      <g>
        <path d="M13.88,9.31a.65.65,0,0,0-.65.65v3.93a.83.83,0,0,1-.82.82H2.12a.83.83,0,0,1-.82-.82V3.59a.83.83,0,0,1,.82-.82H6A.65.65,0,1,0,6,1.47H2.12A2.12,2.12,0,0,0,0,3.59v10.3A2.12,2.12,0,0,0,2.12,16h10.3a2.12,2.12,0,0,0,2.12-2.12V10A.65.65,0,0,0,13.88,9.31Z" fill="#313131"/>
        <path d="M15.81,3.13,12.87.19a.65.65,0,0,0-.91,0L4.6,7.54A.65.65,0,0,0,4.41,8v2.94a.65.65,0,0,0,.65.65H8a.65.65,0,0,0,.46-.19L15.81,4a.65.65,0,0,0,0-.91ZM7.73,10.3h-2v-2l6.71-6.71,2,2Z" fill="#313131"/>
      </g>
    </g>
  </g>
</svg>
