<svg xmlns="http://www.w3.org/2000/svg" viewBox="0 0 35 25.45" width="24px" height="24px">
  <title>avans</title>
  <g id="Layer_2" data-name="Layer 2">
    <g id="Слой_1" data-name="Слой 1">
      <g opacity="0.5">
        <path d="M33.84,4.93h0L3,0V2.61L1.21,2.47V4.93H0V25.45H35V4.93ZM4.22,1.42,20.4,4,4.22,2.71ZM2.41,3.77l.6,0H3l4.08.33,9.78.78H2.41ZM33.79,24.24H1.21V6.14H33.79Z" fill="#1c9e49"/>
        <path d="M3.92,11A2.11,2.11,0,1,0,1.81,8.85,2.11,2.11,0,0,0,3.92,11Zm0-3A.91.91,0,1,1,3,8.85.91.91,0,0,1,3.92,7.95Z" fill="#1c9e49"/>
        <path d="M29,8.85a2.11,2.11,0,1,0,2.11-2.11A2.11,2.11,0,0,0,29,8.85Zm3,0a.91.91,0,1,1-.91-.91A.91.91,0,0,1,32,8.85Z" fill="#1c9e49"/>
        <path d="M3.92,19.41A2.11,2.11,0,1,0,6,21.53,2.11,2.11,0,0,0,3.92,19.41Zm0,3a.91.91,0,1,1,.91-.91A.91.91,0,0,1,3.92,22.43Z" fill="#1c9e49"/>
        <path d="M31.08,19.41a2.11,2.11,0,1,0,2.11,2.11A2.11,2.11,0,0,0,31.08,19.41Zm0,3a.91.91,0,1,1,.91-.91A.91.91,0,0,1,31.08,22.43Z" fill="#1c9e49"/>
        <path d="M28.36,21.53a2.72,2.72,0,0,1,2.72-2.72h.25l.66.06V11.5l-.66.06h-.25a2.72,2.72,0,0,1-2.72-2.72c0-.08,0-.17,0-.25l.06-.66h-6.6a8.37,8.37,0,0,0-8.66,0H6.56l.06.66c0,.08,0,.16,0,.25a2.72,2.72,0,0,1-2.72,2.72H3.68L3,11.5v7.39l.66-.06h.25a2.72,2.72,0,0,1,2.72,2.72c0,.08,0,.17,0,.25l-.06.66h6.59l.29.17.09,0,.6.29.14.06c.23.1.46.18.7.26h0c.25.08.5.14.75.19l.18,0,.59.09.22,0c.26,0,.51,0,.77,0s.51,0,.76,0l.23,0,.54-.08.22,0,.66-.17.3-.1L20.6,23l.32-.13.35-.17.48-.26.07,0h6.6l-.06-.66C28.37,21.69,28.36,21.61,28.36,21.53Zm-20.53-.3h0a3.93,3.93,0,0,0-3.61-3.61V12.76A3.93,3.93,0,0,0,7.83,9.16h3.76l0,0-.3.32L11,9.81l-.1.13A8.36,8.36,0,0,0,9.1,14.27v.06a8.49,8.49,0,0,0,0,.86c0,.29,0,.58,0,.86v.06a8.37,8.37,0,0,0,1.79,4.33l.1.13.28.31.3.32,0,0Zm12.7.53c-.21.1-.42.18-.64.26l-.08,0a7.39,7.39,0,0,1-4,.18l-.11,0L15.13,22l-.26-.1-.41-.17-.2-.09,1.6-.79a1,1,0,0,0,.56-.9V19l-.36-.16a2.71,2.71,0,0,1-1.54-2l-.09-.32-.32-.1A.44.44,0,0,1,13.8,16v-.53A.45.45,0,0,1,14,15.1l.28-.15,0-.32a4.81,4.81,0,0,1,.32-1.33c.07-.17.13-.3.18-.4a1.66,1.66,0,0,0,.22-.88,3.86,3.86,0,0,0,2.08.38h.24c1.92,0,2.86.69,3,2.24l0,.32.28.15a.45.45,0,0,1,.24.39V16a.44.44,0,0,1-.32.42l-.32.1-.09.32a2.71,2.71,0,0,1-1.54,2l-.36.16v1a1,1,0,0,0,.55.9l1.68.86ZM22.87,20l-.16.17a7.32,7.32,0,0,1-.94.81,2.31,2.31,0,0,0-.32-.21l-1.87-1v-.11a3.87,3.87,0,0,0,1.78-2.29A1.64,1.64,0,0,0,22.21,16v-.53a1.64,1.64,0,0,0-.61-1.28c-.25-1.44-1.21-3-4.2-3h-.34a2.59,2.59,0,0,1-1.64-.38,2,2,0,0,1-.46-.4.71.71,0,0,0-1.26.52c0,.2.06.43.11.68.1.49.1.49,0,.77-.05.12-.12.26-.2.45a5.87,5.87,0,0,0-.37,1.38,1.64,1.64,0,0,0-.6,1.27V16a1.64,1.64,0,0,0,.85,1.44,3.87,3.87,0,0,0,1.78,2.29v.1l-1.94,1-.18.12a7.34,7.34,0,0,1-.82-.72L12.13,20c-.13-.14-.25-.29-.37-.44l-.18-.24c-.11-.16-.21-.32-.31-.48l-.13-.21a7.1,7.1,0,0,1-.33-.7c0-.09-.07-.18-.1-.28s-.12-.34-.17-.51-.05-.2-.08-.3-.08-.37-.11-.56,0-.18,0-.27a7.78,7.78,0,0,1-.05-.84,7.24,7.24,0,0,1,.05-.84c0-.09,0-.18,0-.27s.06-.37.11-.56l.08-.3c0-.17.11-.34.17-.51s.06-.19.1-.28a7.23,7.23,0,0,1,.33-.7l.13-.21c.1-.16.2-.33.31-.48l.18-.24c.12-.15.24-.3.37-.44l.16-.17a7.35,7.35,0,0,1,1.35-1.1,7.18,7.18,0,0,1,7.74,0,7.35,7.35,0,0,1,1.35,1.1l.16.17c.13.14.25.29.37.44l.18.24c.11.16.21.32.31.48l.13.21a7.09,7.09,0,0,1,.33.7c0,.09.07.18.1.28s.12.34.17.51.05.2.08.3.08.37.11.56,0,.18,0,.27a7.4,7.4,0,0,1,.05.84,7.24,7.24,0,0,1-.05.84c0,.09,0,.18,0,.27s-.06.37-.11.56l-.08.3c0,.17-.11.34-.17.51s-.06.19-.1.28a7.23,7.23,0,0,1-.33.7l-.13.21c-.1.16-.2.33-.31.48l-.18.24C23.12,19.74,23,19.88,22.87,20Zm4.3,1.2H23.41l0,0,.3-.32.28-.31.1-.13a8.36,8.36,0,0,0,1.79-4.33v-.06a8.48,8.48,0,0,0,0-.86c0-.29,0-.58,0-.86v-.06a8.37,8.37,0,0,0-1.79-4.33L24,9.81l-.28-.31-.3-.32,0,0h3.76a3.93,3.93,0,0,0,3.61,3.61v4.85A3.93,3.93,0,0,0,27.17,21.22Z" fill="#1c9e49"/>
      </g>
    </g>
  </g>
</svg>
