<svg xmlns="http://www.w3.org/2000/svg" viewBox="0 0 23.91 22.1" width="24px" height="24px">
  <title>more-service</title>
  <g id="Layer_2" data-name="Layer 2">
    <g id="Слой_1" data-name="Слой 1">
      <g opacity="0.5">
        <g>
          <path d="M.84,22.1H23.07a.84.84,0,0,0,.84-.84V2.41a.84.84,0,0,0-.84-.84H18.89V.84a.84.84,0,1,0-1.69,0v.72H6.86V.84a.84.84,0,1,0-1.69,0v.72H.84A.84.84,0,0,0,0,2.41V21.28A.84.84,0,0,0,.84,22.1ZM1.69,3.25H5.17v.45a.84.84,0,1,0,1.69,0V3.25H17.2v.45a.84.84,0,1,0,1.69,0V3.25h3.36V5.44H1.69Zm0,3.87H22.22V20.43H1.69Z" fill="#ff6700"/>
          <path d="M18,11H5.89a.84.84,0,1,0,0,1.69H18A.84.84,0,0,0,18,11Z" fill="#ff6700"/>
          <path d="M12,15.08H5.89a.84.84,0,1,0,0,1.69H12a.84.84,0,0,0,0-1.69Z" fill="#ff6700"/>
        </g>
      </g>
    </g>
  </g>
</svg>
