<svg xmlns="http://www.w3.org/2000/svg" viewBox="0 0 30 30" width="24px" height="24px">
  <title>service</title>
  <g id="Layer_2" data-name="Layer 2">
    <g id="Слой_1" data-name="Слой 1">
      <g opacity="0.5">
        <path d="M19.78,17h0l-.69-1.67a1.26,1.26,0,0,0-1.46-.74l-1.08.28a8.38,8.38,0,0,0-1.38-1.38c.1-.36.19-.73.28-1.08a1.26,1.26,0,0,0-.74-1.46L13,10.22a1.26,1.26,0,0,0-1.56.51l-.57,1a8.39,8.39,0,0,0-2,0l-.57-1a1.26,1.26,0,0,0-1.56-.51l-1.67.69a1.26,1.26,0,0,0-.74,1.46c.09.36.18.72.28,1.08a8.38,8.38,0,0,0-1.38,1.38l-1.08-.28a1.26,1.26,0,0,0-1.46.74L.09,17a1.26,1.26,0,0,0,.51,1.56l1,.57a8.39,8.39,0,0,0,0,2l-1,.57a1.26,1.26,0,0,0-.51,1.56l.69,1.67a1.26,1.26,0,0,0,1.46.74l1.08-.28a8.39,8.39,0,0,0,1.38,1.38c-.1.36-.19.73-.28,1.08a1.26,1.26,0,0,0,.74,1.46l1.67.69a1.24,1.24,0,0,0,.48.09,1.26,1.26,0,0,0,1.08-.61l.57-1a8.4,8.4,0,0,0,2,0l.57,1a1.26,1.26,0,0,0,1.56.51l1.67-.69a1.26,1.26,0,0,0,.74-1.46c-.09-.35-.18-.72-.28-1.08a8.39,8.39,0,0,0,1.38-1.38l1.08.28a1.26,1.26,0,0,0,1.46-.74l.69-1.67a1.26,1.26,0,0,0-.51-1.56l-1-.57a8.38,8.38,0,0,0,0-2l1-.57A1.26,1.26,0,0,0,19.78,17Zm-2.19,1A1.25,1.25,0,0,0,17,19.19a7,7,0,0,1,0,1.74,1.25,1.25,0,0,0,.62,1.24l.92.54-.63,1.53-1-.27a1.25,1.25,0,0,0-1.32.44,7,7,0,0,1-1.23,1.23A1.25,1.25,0,0,0,13.85,27c.09.35.18.7.27,1l-1.53.63-.54-.92a1.25,1.25,0,0,0-1.24-.62,7.05,7.05,0,0,1-1.74,0,1.25,1.25,0,0,0-1.24.62l-.54.92L5.75,28c.09-.34.18-.69.27-1a1.25,1.25,0,0,0-.44-1.32,7,7,0,0,1-1.23-1.23A1.25,1.25,0,0,0,3,24l-1,.27-.63-1.53.92-.54a1.25,1.25,0,0,0,.62-1.24,7.05,7.05,0,0,1,0-1.74A1.25,1.25,0,0,0,2.29,18l-.92-.54L2,15.88l1,.27a1.25,1.25,0,0,0,1.32-.44,7,7,0,0,1,1.23-1.23A1.25,1.25,0,0,0,6,13.16c-.09-.35-.18-.69-.27-1l1.53-.63.54.92A1.25,1.25,0,0,0,9.07,13a7,7,0,0,1,1.74,0A1.25,1.25,0,0,0,12,12.41l.54-.92,1.53.63c-.09.34-.18.69-.27,1a1.25,1.25,0,0,0,.44,1.32,7,7,0,0,1,1.23,1.23,1.25,1.25,0,0,0,1.32.44l1-.27.63,1.53Z" fill="#9b4ecd"/>
        <path d="M14.17,18.31a4.58,4.58,0,1,0-2.48,6,4.58,4.58,0,0,0,2.48-6Zm-3,4.74a3.23,3.23,0,1,1,1.75-4.23A3.21,3.21,0,0,1,11.18,23.05Z" fill="#9b4ecd"/>
        <path d="M29.1,5.91l-.71-.1a6.25,6.25,0,0,0-.48-1.16l.43-.57a1.07,1.07,0,0,0-.1-1.38l-.93-.93a1.07,1.07,0,0,0-1.38-.1l-.57.43a6.25,6.25,0,0,0-1.16-.48c0-.24-.07-.48-.1-.71A1.07,1.07,0,0,0,23,0H21.72a1.07,1.07,0,0,0-1.05.91c0,.23-.07.47-.1.71a6.25,6.25,0,0,0-1.16.48l-.57-.43a1.07,1.07,0,0,0-1.38.1l-.93.93a1.07,1.07,0,0,0-.1,1.38l.43.57a6.26,6.26,0,0,0-.48,1.16l-.71.1A1.07,1.07,0,0,0,14.76,7V8.28a1.07,1.07,0,0,0,.91,1.05l.71.1a6.26,6.26,0,0,0,.48,1.16l-.43.57a1.07,1.07,0,0,0,.1,1.38l.93.93a1.07,1.07,0,0,0,1.38.1l.57-.43a6.25,6.25,0,0,0,1.16.48c0,.24.07.48.1.71a1.07,1.07,0,0,0,1.05.91H23a1.07,1.07,0,0,0,1.05-.91c0-.23.07-.47.1-.71a6.24,6.24,0,0,0,1.16-.48l.57.43a1.07,1.07,0,0,0,1.38-.1l.93-.93a1.07,1.07,0,0,0,.1-1.38l-.43-.57a6.25,6.25,0,0,0,.48-1.16l.71-.1A1.07,1.07,0,0,0,30,8.28V7A1.07,1.07,0,0,0,29.1,5.91Zm-.37,2.18-.64.09A1.06,1.06,0,0,0,27.2,9a5,5,0,0,1-.47,1.13,1.06,1.06,0,0,0,.08,1.17l.39.52-.67.67L26,12.05A1.06,1.06,0,0,0,24.84,12a5,5,0,0,1-1.13.47,1.06,1.06,0,0,0-.77.89c0,.22-.06.43-.09.64h-.95c0-.21-.06-.43-.09-.64a1.06,1.06,0,0,0-.77-.89A5,5,0,0,1,19.91,12a1.06,1.06,0,0,0-1.17.08l-.52.39-.67-.67.39-.52A1.06,1.06,0,0,0,18,10.09,5,5,0,0,1,17.56,9a1.06,1.06,0,0,0-.89-.77L16,8.09V7.15l.64-.09a1.06,1.06,0,0,0,.89-.77A5,5,0,0,1,18,5.16,1.06,1.06,0,0,0,17.95,4l-.39-.52.67-.67.52.39a1.06,1.06,0,0,0,1.17.08A5,5,0,0,1,21,2.81a1.06,1.06,0,0,0,.77-.89c0-.22.06-.43.09-.64h.95c0,.21.06.43.09.64a1.06,1.06,0,0,0,.77.89,5,5,0,0,1,1.13.47A1.06,1.06,0,0,0,26,3.19l.52-.39.67.67L26.81,4a1.06,1.06,0,0,0-.08,1.17,5,5,0,0,1,.47,1.13,1.06,1.06,0,0,0,.89.77l.64.09Z" fill="#9b4ecd"/>
        <path d="M22.38,4.9A2.72,2.72,0,1,0,25.1,7.62,2.72,2.72,0,0,0,22.38,4.9Zm0,4.23a1.51,1.51,0,1,1,1.51-1.51A1.51,1.51,0,0,1,22.38,9.13Z" fill="#9b4ecd"/>
      </g>
    </g>
  </g>
</svg>
