<svg xmlns="http://www.w3.org/2000/svg" viewBox="0 0 24.69 34.12" width="24px" height="24px">
  <title>water</title>
  <g id="Layer_2" data-name="Layer 2">
    <g id="Слой_1" data-name="Слой 1">
      <g opacity="0.5">
        <g>
          <path d="M18.64,8.35A60,60,0,0,1,14,1.15,2.09,2.09,0,0,0,12.21,0a2,2,0,0,0-1.84,1.15A66.49,66.49,0,0,1,6,8.21C2.89,12.69,0,16.9,0,21.6c0,7.27,5.11,12.52,12.17,12.52A12.25,12.25,0,0,0,24.69,21.6C24.69,16.94,21.74,12.76,18.64,8.35ZM12.17,32.72C5.91,32.72,1.39,28,1.39,21.6c0-4.24,2.78-8.31,5.7-12.59a66.28,66.28,0,0,0,4.49-7.23.7.7,0,0,1,1.25,0,62.89,62.89,0,0,0,4.69,7.37c3,4.24,5.77,8.24,5.77,12.45A10.9,10.9,0,0,1,12.17,32.72Z" fill="#00b0ff"/>
          <path d="M8.9,10.22a.71.71,0,0,0-1,.17,52.84,52.84,0,0,0-3.58,6,.71.71,0,0,0,.35.94,1,1,0,0,0,.31.07A.69.69,0,0,0,5.63,17a45,45,0,0,1,3.48-5.81A.76.76,0,0,0,8.9,10.22Z" fill="#00b0ff"/>
          <path d="M4.38,18.15a.71.71,0,0,0-.9.38,7.21,7.21,0,0,0-.35,1.15.73.73,0,0,0,.56.83h.14a.74.74,0,0,0,.7-.56A4.81,4.81,0,0,1,4.8,19,.68.68,0,0,0,4.38,18.15Z" fill="#00b0ff"/>
        </g>
      </g>
    </g>
  </g>
</svg>
