<svg xmlns="http://www.w3.org/2000/svg" viewBox="0 0 37 37"><defs><style>.cls-1{fill:none;}.cls-2{fill:#4db6ac;}</style></defs><title>Ресурс 5</title><g id="Слой_2" data-name="Слой 2"><g id="Слой_1-2" data-name="Слой 1"><rect class="cls-1" width="37" height="37"/><path class="cls-2" d="M31.92,23.29a.52.52,0,0,0,.71-.19,13.49,13.49,0,0,1,3.26-3.72.52.52,0,0,0-.36-.93,17.24,17.24,0,0,0-6.63,2.33A21.82,21.82,0,0,1,30.81,18a20.18,20.18,0,0,1,3.62-3.56.5.5,0,0,0,.18-.61.51.51,0,0,0-.56-.32,22.82,22.82,0,0,0-8.52,3.81l-.27.19a31.65,31.65,0,0,1,1.18-6.67.51.51,0,0,0-.2-.58.53.53,0,0,0-.61,0A21.34,21.34,0,0,0,21,15.76c-.84-3.54-2-6.7-2-6.91a.52.52,0,0,0-1,0s-1.18,3.31-2,6.91a21.33,21.33,0,0,0-4.6-5.53.53.53,0,0,0-.61,0,.51.51,0,0,0-.2.58,31.65,31.65,0,0,1,1.18,6.67l-.27-.19A22.82,22.82,0,0,0,3,13.47a.51.51,0,0,0-.56.32.5.5,0,0,0,.18.61,19.9,19.9,0,0,1,3.6,3.54A20.8,20.8,0,0,1,8.1,20.78a17.24,17.24,0,0,0-6.63-2.33.52.52,0,0,0-.54.33.51.51,0,0,0,.18.6A13.31,13.31,0,0,1,4.37,23.1a.52.52,0,1,0,.9-.52,13.89,13.89,0,0,0-2.12-2.75,13.67,13.67,0,0,1,5.42,2.59,5.85,5.85,0,0,1,.61.61,17.85,17.85,0,0,1,1.07,3.73v0c0,.22.07.44.1.66H6.64a7.43,7.43,0,0,0-.08-1.25A.51.51,0,0,0,6,25.77a.52.52,0,0,0-.44.58,6.9,6.9,0,0,1,.07,1.11h-4a.52.52,0,0,0,0,1H35.39a.52.52,0,0,0,0-1h-4a6.9,6.9,0,0,1,.07-1.11.52.52,0,0,0-.44-.58.51.51,0,0,0-.58.44,7.43,7.43,0,0,0-.08,1.25H26.64c0-.22.06-.44.1-.65v0A17.77,17.77,0,0,1,27.82,23a5.85,5.85,0,0,1,.61-.61,13.67,13.67,0,0,1,5.42-2.59,14.19,14.19,0,0,0-2.12,2.75A.52.52,0,0,0,31.92,23.29ZM25,12.23a35.85,35.85,0,0,0-.83,6.2l-.21.22,0,0-.22.24,0,.05-.21.24,0,0-.2.25-.06.07-.19.25-.06.09a2.48,2.48,0,0,0-.19.26l-.05.07-.16.24-.05.07-.19.29-.05.09c-.07.1-.13.2-.19.3l0,.07-.07.12v-.06a28,28,0,0,0-.57-4.12A24.75,24.75,0,0,1,25,12.23Zm-6.5-1.59A60.36,60.36,0,0,1,20.63,19l0,.12,0,.18a1,1,0,0,1,0,.17l0,.09,0,.25v0l0,.23v0l0,.26v0l0,.24v0c0,.09,0,.17,0,.26v0c0,.07,0,.15,0,.22v0c0,.07,0,.15,0,.23v0c0,.07,0,.13,0,.2v.26c0,.11,0,.2,0,.3A9.75,9.75,0,0,0,18.5,24.1L18.4,24v-.13a1.62,1.62,0,0,1,0-.22,1.93,1.93,0,0,0,0-.24,1.55,1.55,0,0,0,0-.22c0-.08,0-.16,0-.24s0-.14,0-.21a1.64,1.64,0,0,0,0-.23,1.49,1.49,0,0,0,0-.21,1.79,1.79,0,0,0,0-.23c0-.07,0-.13,0-.2l0-.22,0-.2a1.43,1.43,0,0,0,0-.22l0-.19c0-.08,0-.15,0-.22a1.29,1.29,0,0,0,0-.19c0-.07,0-.14,0-.21a1.16,1.16,0,0,1,0-.18L17.91,20c0-.06,0-.11,0-.17l-.06-.21c0-.05,0-.11,0-.17l-.06-.2a1,1,0,0,1-.05-.16l-.08-.2c0-.05,0-.1-.05-.15a1.8,1.8,0,0,1-.08-.21l-.06-.13a2.44,2.44,0,0,0-.1-.24,1,1,0,0,1,0-.1c0-.11-.1-.21-.16-.32h0l-.16-.3,0-.05-.17-.31C17.27,14.6,18,12.14,18.5,10.64Zm-2.77,6.77h0c.06.13.13.26.2.38l0,.06.19.37h0l.13.28.05.09a1.67,1.67,0,0,0,.08.2l0,.11.07.19a.76.76,0,0,1,0,.11l.08.21,0,.1c0,.1.07.2.1.31h0l.09.32,0,.11.06.23,0,.12c0,.08,0,.15,0,.23l0,.12a2,2,0,0,1,0,.24l0,.12c0,.11,0,.22.05.33v0c0,.12,0,.25,0,.37a.49.49,0,0,1,0,.12l0,.26c0,.05,0,.09,0,.14a2.11,2.11,0,0,0,0,.25.76.76,0,0,0,0,.15v.08a10.46,10.46,0,0,0-2-1.19l-.11-.2,0,0c-.06-.12-.13-.22-.19-.33l-.06-.1c0-.09-.11-.18-.17-.27l0-.07-.18-.28a.61.61,0,0,0-.07-.1l-.16-.25-.07-.09-.16-.23-.08-.1c-.06-.08-.12-.17-.19-.25l-.05-.06-.17-.22-.07-.08L13.32,19l0,0-.2-.22L13,18.65l-.21-.22A35.88,35.88,0,0,0,12,12.24,24.27,24.27,0,0,1,15.73,17.41ZM11.4,27.46h0s0-.05,0-.08,0-.18,0-.27l0-.12c0-.11,0-.22-.05-.33v-.05a18.78,18.78,0,0,0-1.16-4l0-.06A21.33,21.33,0,0,0,7,17.29,21.68,21.68,0,0,0,5,15.1a24.51,24.51,0,0,1,5.91,3A8.29,8.29,0,0,1,12,19l.12.12.06.06.12.12.05.06.12.13.05.06.13.14,0,0,.14.16h0a12,12,0,0,1,.77,1l0,.05.12.17,0,.07,0,.06a9,9,0,0,0-1.6-.3h0a.58.58,0,0,0-.26.06.48.48,0,0,0-.21.19l0,.07a.49.49,0,0,0,.07.52l.05.06h0v0h0l0,0v0l0,0,0,0,0,0,0,0,0,0,0,0,.05.05,0,0,.05.05,0,.05.06.06,0,.05.06.07,0,.06.07.08,0,.05.07.09,0,.06.07.1,0,.06.08.1,0,.07a.76.76,0,0,0,.08.11l0,.07.09.13,0,.06.1.16,0,0c.09.14.18.28.26.43l0,.05a1.62,1.62,0,0,0,.1.18.3.3,0,0,0,0,.08,1.19,1.19,0,0,0,.08.16.36.36,0,0,1,0,.09,1.19,1.19,0,0,1,.08.16s0,.07.05.1l.07.16s0,.07,0,.11a1,1,0,0,1,.07.15.61.61,0,0,0,.05.12l.06.16s0,.08,0,.12l.06.16a.65.65,0,0,0,0,.13s0,.11.05.16,0,.09,0,.14,0,.11.05.16l0,.14a1.36,1.36,0,0,1,0,.17s0,.1,0,.14l0,.18,0,.15v.05Zm4.38,0h0V27.4l0-.16s0-.06,0-.09,0-.09,0-.13a.29.29,0,0,1,0-.09l0-.12a.36.36,0,0,0,0-.1l0-.11a.36.36,0,0,0,0-.1l0-.11,0-.1s0-.07,0-.1l0-.1,0-.1,0-.1,0-.1,0-.09,0-.1,0-.1,0-.09,0-.09,0-.09a.42.42,0,0,0,0-.1l0-.08,0-.1,0-.08,0-.1,0-.06-.18-.38,0,0a.93.93,0,0,0-.05-.1l0-.07L14.62,24l0-.06a.41.41,0,0,1-.05-.09l0-.07,0-.08,0-.07-.05-.08,0-.06,0-.08,0-.07-.05-.07,0-.06,0-.08,0-.06L14,23,14,23l0-.07,0-.05-.05-.07,0-.06,0-.06,0-.06,0-.05,0-.07,0,0-.08-.11a9.38,9.38,0,0,1,4.22,2.5l0,0,.11.12.05.05.08.1a.46.46,0,0,1,.07.07l.07.09.07.08.13.17h0l.19.25a.56.56,0,0,0,.05.08l.13.2.06.08.14.24,0,.05.16.29,0,.08.12.22a1,1,0,0,0,0,.1,2.56,2.56,0,0,1,.11.24l0,.08v0Zm6.42-3.09,0,.07s-.05.11-.08.16l0,.07a.54.54,0,0,1,0,.11l0,.08,0,.09,0,.09,0,.1,0,.08a.42.42,0,0,1,0,.1l0,.09,0,.1,0,.09,0,.1,0,.09,0,.1,0,.1,0,.1,0,.1a.2.2,0,0,0,0,.11l0,.09,0,.11a.36.36,0,0,0,0,.1l0,.11a.36.36,0,0,0,0,.1l0,.12a.29.29,0,0,1,0,.09s0,.09,0,.13,0,.06,0,.09l0,.16v.06h-.63v0l-.06-.14a2.44,2.44,0,0,0-.1-.24l-.06-.15a1.47,1.47,0,0,1-.1-.22l-.08-.15-.1-.2L20,26.17l-.11-.2-.08-.14-.12-.2-.08-.13-.14-.21a.61.61,0,0,1-.07-.1l-.22-.3h0l.09-.09.05-.06a.94.94,0,0,0,.1-.1l0,0,.12-.12h0a9.41,9.41,0,0,1,3.88-2.16l-.08.11,0,0-.06.09,0,0-.05.07,0,.05-.05.07,0,.06-.05.07L23,23,23,23l0,.07-.05.07,0,.06-.05.07,0,.07,0,.07,0,.07-.05.08,0,.07,0,.08,0,.07-.05.08,0,.07-.05.09,0,.07,0,.09,0,.07Zm4.72-1.86,0,.06a18.78,18.78,0,0,0-1.16,4v.05c0,.11,0,.22,0,.33a.5.5,0,0,0,0,.12c0,.09,0,.18,0,.27s0,.05,0,.08H22.27v-.05l0-.15,0-.17c0-.05,0-.1,0-.14a.85.85,0,0,1,0-.17l0-.14.05-.17,0-.13c0-.06,0-.11.05-.16s0-.09,0-.14l.06-.15a.69.69,0,0,1,0-.13.88.88,0,0,1,.05-.15.61.61,0,0,0,.05-.12l.06-.15a.61.61,0,0,0,.05-.12.91.91,0,0,0,.07-.14l.05-.12s.05-.09.07-.14a1.17,1.17,0,0,0,.05-.11l.07-.13a.54.54,0,0,0,0-.11l.08-.13a.73.73,0,0,1,.05-.09l.09-.17.06-.09.1-.17.06-.09.07-.11.06-.09a.36.36,0,0,1,.07-.1l.06-.09.06-.09.06-.09.06-.08.06-.08.06-.08.06-.08.05-.07.06-.07.05-.07.06-.06.05-.06.05-.06,0-.05.05-.06,0-.05.05,0,0-.05,0,0,0,0,0,0,0,0,0,0,0,0,0,0,0,0h0v0h0a.51.51,0,0,0,.12-.58.51.51,0,0,0-.5-.32h0a9.17,9.17,0,0,0-1.6.3l0-.05,0-.07.12-.18,0,0a12.25,12.25,0,0,1,.78-1h0l.14-.17,0,0,.13-.14.05-.06.12-.13,0-.06.12-.12.06-.06L25,19a8.29,8.29,0,0,1,1.1-.91,24.51,24.51,0,0,1,5.91-3,21.68,21.68,0,0,0-2,2.19A21.33,21.33,0,0,0,26.92,22.51Z"/></g></g></svg>