<svg xmlns="http://www.w3.org/2000/svg" viewBox="0 0 37 37"><defs><style>.cls-1{fill:none;}.cls-2{fill:#64b5f6;}</style></defs><title>Ресурс 13</title><g id="Слой_2" data-name="Слой 2"><g id="Слой_1-2" data-name="Слой 1"><rect class="cls-1" width="37" height="37"/><path class="cls-2" d="M35,3.17h-.47V1.54A.54.54,0,0,0,34,1H29.8a.54.54,0,0,0-.54.54V3.17h-.61a.55.55,0,0,0-.55.55V5.46a.54.54,0,0,0,.55.54h.61V7.63a.54.54,0,0,0,.54.54.55.55,0,0,0,.55-.54V6h3.11v7.86a6,6,0,0,1-6,6h-4.1V16.58h4.24a2.72,2.72,0,0,0,2.72-2.72V10.53A.55.55,0,0,0,29.8,10a.54.54,0,0,0-.54.54v3.33a1.63,1.63,0,0,1-1.63,1.63H23.39v-.76a.54.54,0,0,0-.54-.54H21.11a.54.54,0,0,0-.54.54v.76H19.33V11.65h.59a2,2,0,0,0,1.91,1.45,2,2,0,1,0,0-4,2,2,0,0,0-1.91,1.45H17.66a2,2,0,0,0-1.91-1.45,2,2,0,1,0,0,4,2,2,0,0,0,1.91-1.45h.59v3.84H17v-.76a.54.54,0,0,0-.54-.54H14.73a.54.54,0,0,0-.54.54v.76H9.66a7.08,7.08,0,0,0-7.07,7.07V25a.55.55,0,0,0,.55.55A.55.55,0,0,0,3.68,25V22.56a6,6,0,0,1,6-6h4.53v3.26H9.51A2.72,2.72,0,0,0,6.8,22.56v8.3H3.68V27.92a.54.54,0,0,0-.54-.54.55.55,0,0,0-.55.54v2.94H2a.55.55,0,0,0-.55.54v1.74a.55.55,0,0,0,.55.54h.61v1.63a.55.55,0,0,0,.55.55h4.2a.55.55,0,0,0,.54-.55V33.68h.48a.54.54,0,0,0,.54-.54V31.4a.54.54,0,0,0-.54-.54H7.88v-8.3a1.64,1.64,0,0,1,1.63-1.63h4.68v.76a.54.54,0,0,0,.54.54h1.74a.54.54,0,0,0,.54-.54v-.76h3.56v.76a.54.54,0,0,0,.54.54h1.74a.54.54,0,0,0,.54-.54v-.76h4.1a7.07,7.07,0,0,0,7.06-7.07V6H35a.55.55,0,0,0,.55-.54V3.72A.55.55,0,0,0,35,3.17Zm-13.19,7a.91.91,0,1,1,0,1.81.91.91,0,0,1,0-1.81ZM15.75,12a.91.91,0,1,1,.9-.9A.9.9,0,0,1,15.75,12ZM6.8,34.77H3.68V33.68H6.8v1.09Zm1-2.18H2.52v-.65H7.81Zm8.12-11.45h-.65V15.28h.65Zm4.64-1.3H17V16.58h3.56Zm1.73,1.3h-.65V15.28h.65Zm8.05-19h3.11V3.17H30.35Zm4.13,2.82H29.19V4.26h5.29Z"/><path class="cls-2" d="M21.62,26.49a.54.54,0,0,0-.74-.2.55.55,0,0,0-.2.75c1.54,2.62,1.77,3.76,1.77,4.21a3.66,3.66,0,0,1-7.32,0c0-1.56,2.34-5.26,3.66-7.17.19.28.44.64.7,1.05a.56.56,0,0,0,.76.16.55.55,0,0,0,.15-.76c-.65-1-1.15-1.68-1.17-1.71a.54.54,0,0,0-.88,0c-.44.61-4.31,6-4.31,8.43a4.75,4.75,0,0,0,9.5,0C23.54,30.24,22.91,28.68,21.62,26.49Z"/><path class="cls-2" d="M20.12,27.37a.54.54,0,0,0-.74-.2.55.55,0,0,0-.2.75c1.48,2.51,1.53,3.31,1.53,3.33a1.92,1.92,0,0,1-1.92,1.92.55.55,0,0,0-.54.55.54.54,0,0,0,.54.54,3,3,0,0,0,3-3C21.8,31,21.68,30,20.12,27.37Z"/></g></g></svg>