<svg xmlns="http://www.w3.org/2000/svg" viewBox="0 0 37 37"><defs><style>.cls-1{fill:none;}.cls-2{fill:#92dbff;}</style></defs><title>Ресурс 3</title><g id="Слой_2" data-name="Слой 2"><g id="Слой_1-2" data-name="Слой 1"><rect class="cls-1" width="37" height="37"/><path class="cls-2" d="M25,9.51a62.25,62.25,0,0,1-4.74-7.43A2.16,2.16,0,0,0,18.36.89a2.1,2.1,0,0,0-1.91,1.19,67.6,67.6,0,0,1-4.52,7.28c-3.19,4.64-6.17,9-6.17,13.82,0,7.51,5.27,12.93,12.56,12.93A12.65,12.65,0,0,0,31.24,23.18C31.24,18.37,28.19,14.07,25,9.51ZM18.32,34.67c-6.46,0-11.13-4.85-11.13-11.49,0-4.37,2.87-8.57,5.89-13a68.14,68.14,0,0,0,4.63-7.47.73.73,0,0,1,1.29,0,65.74,65.74,0,0,0,4.85,7.61c3,4.38,6,8.51,6,12.85A11.26,11.26,0,0,1,18.32,34.67Z"/><path class="cls-2" d="M15,11.45a.73.73,0,0,0-1,.18,55.34,55.34,0,0,0-3.7,6.21.74.74,0,0,0,.36,1,1.3,1.3,0,0,0,.33.07.72.72,0,0,0,.64-.4,46.53,46.53,0,0,1,3.59-6A.78.78,0,0,0,15,11.45Z"/><path class="cls-2" d="M10.28,19.63a.73.73,0,0,0-.93.4A6.64,6.64,0,0,0,9,21.21a.76.76,0,0,0,.57.86h.15a.76.76,0,0,0,.71-.57,5.67,5.67,0,0,1,.29-1A.7.7,0,0,0,10.28,19.63Z"/></g></g></svg>