<svg xmlns="http://www.w3.org/2000/svg" viewBox="0 0 37 37"><defs><style>.cls-1{fill:none;}.cls-2{fill:#a88b82;}</style></defs><title>Ресурс 14</title><g id="Слой_2" data-name="Слой 2"><g id="Слой_1-2" data-name="Слой 1"><rect class="cls-1" width="37" height="37"/><path class="cls-2" d="M29.32,9.28A6.26,6.26,0,0,0,32.7,3.73a2.27,2.27,0,0,0-3.9-1.58,2.82,2.82,0,0,0-4.7,0,2.23,2.23,0,0,0-1.62-.69A2.28,2.28,0,0,0,20.2,3.73a6.25,6.25,0,0,0,3.39,5.55,9.47,9.47,0,0,0-3.55,2,11.9,11.9,0,0,0-4.26-2.07,6.23,6.23,0,0,0,3.29-5.5,2.27,2.27,0,0,0-3.9-1.58,2.82,2.82,0,0,0-4.7,0,2.23,2.23,0,0,0-1.62-.69A2.28,2.28,0,0,0,6.57,3.73a6.23,6.23,0,0,0,3.29,5.5,11.94,11.94,0,0,0-9,11.54v7.38a8,8,0,0,0,8,8h8A8,8,0,0,0,24,31.56h7a5.12,5.12,0,0,0,5.12-5.11V18.5A9.68,9.68,0,0,0,29.32,9.28Zm-8-5.55a1.14,1.14,0,0,1,2.27,0h1.14a1.7,1.7,0,1,1,3.4,0h1.14a1.14,1.14,0,0,1,2.27,0,5.11,5.11,0,1,1-10.22,0Zm2.4,6.7a9.58,9.58,0,0,0-1.29,3.34A11.48,11.48,0,0,0,20.92,12,8.44,8.44,0,0,1,23.74,10.43Zm-16-6.7a1.14,1.14,0,0,1,2.27,0h1.14a1.7,1.7,0,1,1,3.4,0h1.14a1.14,1.14,0,0,1,2.27,0,5.11,5.11,0,1,1-10.22,0Zm15.9,24.42A6.83,6.83,0,0,1,16.8,35h-8A6.83,6.83,0,0,1,2,28.15V20.77A10.79,10.79,0,0,1,9.85,10.41c-1.63,1.87-2.71,5.26-2.71,9.23H8.28c0-5.24,2.08-9.66,4.54-9.66s4.54,4.42,4.54,9.66H18.5c0-4-1.07-7.36-2.71-9.23a10.79,10.79,0,0,1,7.82,10.36v7.38ZM35,26.45h0a4,4,0,0,1-4,4H24.41a7.81,7.81,0,0,0,.34-2.28V20.77a11.78,11.78,0,0,0-1.41-5.6c.31-2,1.11-5.19,3.11-5.19s3.41,3.7,3.41,9.66H31c0-4.34-.62-7.46-1.81-9.2A8.53,8.53,0,0,1,35,18.5Z"/></g></g></svg>