<svg xmlns="http://www.w3.org/2000/svg" viewBox="0 0 37 37"><defs><style>.cls-1{fill:none;}.cls-2{fill:#29b6f6;}</style></defs><title>Ресурс 15</title><g id="Слой_2" data-name="Слой 2"><g id="Слой_1-2" data-name="Слой 1"><rect class="cls-1" width="37" height="37"/><path class="cls-2" d="M31.21,24.87l-1.83-1.06,1.7-.71a.75.75,0,1,0-.58-1.39l-2.77,1.15-1.69-1,3.88-1.64a.74.74,0,0,0,.4-1,.76.76,0,0,0-1-.4L24.4,20.93l-4.48-2.58,4.46-2.57,4.91,2a.75.75,0,0,0,1-.41.77.77,0,0,0-.42-1L26,14.82l1.74-1,2.66,1a.65.65,0,0,0,.27.05.74.74,0,0,0,.7-.48.76.76,0,0,0-.43-1l-1.52-.59,1.75-1a.75.75,0,0,0,.28-1,.75.75,0,0,0-1-.28l-1.79,1,.24-1.83a.76.76,0,0,0-.66-.85.75.75,0,0,0-.84.65l-.39,3-1.73,1,.52-4.18a.76.76,0,0,0-1.5-.19l-.68,5.32L19.17,17V12.15l4.25-3.21a.76.76,0,0,0,.16-1.06.77.77,0,0,0-1.07-.14l-3.34,2.51V8.19l2.32-1.76a.76.76,0,1,0-.92-1.2l-1.4,1.06v-2a.76.76,0,1,0-1.51,0V6.37L16.33,5.28a.76.76,0,0,0-.95,1.18l2.28,1.85v2L14.39,7.74a.76.76,0,0,0-1.05.13.75.75,0,0,0,.12,1.06l4.2,3.3v4.83l-4.23-2.45-.66-5.32a.75.75,0,0,0-1.49.19l.52,4.18-1.74-1-.38-3a.76.76,0,1,0-1.5.2l.24,1.83L6.54,10.62a.75.75,0,0,0-1,.28.75.75,0,0,0,.28,1L7.63,13l-1.52.59A.75.75,0,0,0,6.38,15a.65.65,0,0,0,.27,0l2.66-1,1.74,1L7.23,16.51A.76.76,0,0,0,7.51,18a.71.71,0,0,0,.28-.06l4.92-2,4.19,2.42-4.21,2.43L7.75,18.7a.76.76,0,0,0-1,.4.75.75,0,0,0,.41,1l3.88,1.64-1.7,1L6.58,21.55A.76.76,0,0,0,6,23l1.71.71L5.79,24.77a.75.75,0,0,0-.28,1,.76.76,0,0,0,.65.38.86.86,0,0,0,.38-.1L8.43,25,8.18,26.6a.74.74,0,0,0,.63.86h.11a.76.76,0,0,0,.75-.64L10.11,24l1.7-1-.58,4.08a.75.75,0,0,0,.64.85H12a.76.76,0,0,0,.75-.65l.72-5.25,4.21-2.44v5.13l-4.2,3.3a.75.75,0,0,0-.12,1.06.76.76,0,0,0,1.05.13l3.27-2.57v1.9l-2.28,1.85a.75.75,0,0,0-.11,1.06.74.74,0,0,0,1.05.12l1.34-1.09v2.21a.76.76,0,1,0,1.51,0V30.61l1.4,1.06a.76.76,0,1,0,.92-1.2l-2.32-1.76v-2l3.34,2.51a.76.76,0,0,0,.46.16.79.79,0,0,0,.61-.3.76.76,0,0,0-.16-1.06l-4.25-3.21V19.68l4.43,2.55.75,5.25a.76.76,0,0,0,.75.65h.11a.75.75,0,0,0,.64-.85l-.57-4.08,1.7,1L27.42,27a.76.76,0,0,0,.74.64h.12a.75.75,0,0,0,.63-.86l-.25-1.61,1.8,1a.86.86,0,0,0,.38.1.76.76,0,0,0,.65-.38A.75.75,0,0,0,31.21,24.87Z"/></g></g></svg>