<svg xmlns="http://www.w3.org/2000/svg" viewBox="0 0 37 37"><defs><style>.cls-1{fill:none;}.cls-2{fill:#78909c;}</style></defs><title>Ресурс 16</title><g id="Слой_2" data-name="Слой 2"><g id="Слой_1-2" data-name="Слой 1"><rect class="cls-1" width="37" height="37"/><path class="cls-2" d="M9.11,3.83A5.29,5.29,0,0,0,3.83,9.11.59.59,0,1,0,5,9.11,4.12,4.12,0,0,1,9.11,5a.59.59,0,1,0,0-1.17Z"/><path class="cls-2" d="M9.11,2.07a.59.59,0,0,0,0-1.18A8.23,8.23,0,0,0,.89,9.11a.6.6,0,0,0,.59.59.59.59,0,0,0,.59-.59A7.05,7.05,0,0,1,9.11,2.07Z"/><path class="cls-2" d="M15.74,19.65a.59.59,0,0,0,.42-.17l3.32-3.32a.59.59,0,0,0,0-.83L17,12.84a.59.59,0,0,0-.42-.17.58.58,0,0,0-.41.17l-2.91,2.9-.41-.41a1.77,1.77,0,0,1,1.24-3h0a.59.59,0,1,0,0-1.17h0A2.88,2.88,0,0,0,12,12a3,3,0,0,0,0,4.15l.82.82h0l2.49,2.49A.58.58,0,0,0,15.74,19.65Zm.83-5.57,1.66,1.66-2.49,2.49-1.66-1.66Z"/><path class="cls-2" d="M35.25,21.14,18.65,4.54a2.93,2.93,0,0,0-4.15,0L10.76,8.27l-.41-.41a1.79,1.79,0,0,0-2.49,0A1.75,1.75,0,0,0,7.34,9.1a1.77,1.77,0,0,0,.52,1.25l.41.41L4.54,14.5a2.93,2.93,0,0,0,0,4.15l16.6,16.6a2.93,2.93,0,0,0,4.15,0l10-10A3,3,0,0,0,35.25,21.14Zm-.83,3.32-10,10a1.81,1.81,0,0,1-2.49,0L5.37,17.82a1.77,1.77,0,0,1-.52-1.25,1.75,1.75,0,0,1,.52-1.24l4.15-4.15a.59.59,0,0,0,0-.83l-.83-.83a.59.59,0,0,1-.17-.42.58.58,0,0,1,.58-.58.59.59,0,0,1,.42.17l.83.83a.59.59,0,0,0,.83,0l4.15-4.15a1.79,1.79,0,0,1,2.49,0L34.42,22A1.77,1.77,0,0,1,34.42,24.46Z"/><path class="cls-2" d="M25.29,14.5a.59.59,0,0,0-.83,0l-10,10a.59.59,0,0,0,.41,1,.63.63,0,0,0,.42-.17l10-10A.59.59,0,0,0,25.29,14.5Z"/><path class="cls-2" d="M26.12,22A2.93,2.93,0,1,0,22,26.12l.82.82h0l2.48,2.48a.58.58,0,0,0,.41.17.59.59,0,0,0,.42-.17l3.32-3.32a.59.59,0,0,0,.17-.42.58.58,0,0,0-.17-.41ZM22.8,25.29A1.77,1.77,0,0,1,22.28,24a1.75,1.75,0,0,1,.52-1.24A1.71,1.71,0,0,1,24,22.28a1.73,1.73,0,0,1,1.25.52l.41.41L23.21,25.7Zm2.9,2.9L24,26.53,26.53,24l1.66,1.66Z"/></g></g></svg>