<svg xmlns="http://www.w3.org/2000/svg" viewBox="0 0 37 37"><defs><style>.cls-1{fill:none;}.cls-2{fill:#9e9e9e;}</style></defs><title>Ресурс 6</title><g id="Слой_2" data-name="Слой 2"><g id="Слой_1-2" data-name="Слой 1"><rect class="cls-1" width="37" height="37"/><path class="cls-2" d="M30.68,35.16,30,34.68a.39.39,0,0,1-.06-.11V30.3a.85.85,0,0,0-.86-.86h-.7a.52.52,0,0,0,0,1h.53v.77H16.47v-.77H26.2a.52.52,0,1,0,0-1h-.46V28a.87.87,0,0,0-.86-.86h-.8V11.9a.52.52,0,1,0-1,0V27.18h-.77V6.46h.77v3.1a.52.52,0,1,0,1,0V6.11s0,0,0,0l2.51-3.85a.87.87,0,0,0,0-.88.88.88,0,0,0-.76-.45H19.42a.86.86,0,0,0-.72,1.33l.67,1a.52.52,0,1,0,.86-.57l-.49-.74h5.85L23.31,5.42H22l-.63-1a.52.52,0,1,0-.86.57l.68,1,0,0V27.18h-.79a.86.86,0,0,0-.86.86v1.4H16.3a.86.86,0,0,0-.86.86v1.15h0c-1.69,0-3,.77-3,1.79v0a3.2,3.2,0,0,0-1.29.6,3.39,3.39,0,0,0-2.08-.68,2.73,2.73,0,0,0-3,2.38.52.52,0,0,0,.52.52H19.5a.52.52,0,0,0,.52-.52,2.3,2.3,0,0,0-1.32-2V32.27h1.21v2.3a1.23,1.23,0,0,0,.52,1l.73.49a.49.49,0,0,0,.28.09.51.51,0,0,0,.43-.23.52.52,0,0,0-.14-.72L21,34.68a.6.6,0,0,1-.06-.11v-2.3h1.21v2.3a1.25,1.25,0,0,0,.51,1l.74.49a.47.47,0,0,0,.28.09.51.51,0,0,0,.43-.23.53.53,0,0,0-.14-.72l-.73-.48a.3.3,0,0,1-.06-.11v-2.3h1.21v2.3a1.22,1.22,0,0,0,.51,1l.73.49a.52.52,0,0,0,.29.09.55.55,0,0,0,.43-.23.52.52,0,0,0-.15-.72l-.72-.48a.2.2,0,0,1-.06-.11v-2.3h1.2v2.3a1.23,1.23,0,0,0,.52,1l.73.49a.52.52,0,0,0,.29.09.55.55,0,0,0,.43-.23.53.53,0,0,0-.15-.72l-.72-.48a.34.34,0,0,1-.07-.11v-2.3h1.21v2.3a1.23,1.23,0,0,0,.52,1l.73.49a.51.51,0,0,0,.28.09.54.54,0,0,0,.43-.23A.52.52,0,0,0,30.68,35.16Zm-10-6.94h4.08v1.22H20.63ZM10.32,35.07H7.27a2.13,2.13,0,0,1,1.79-.83,2.4,2.4,0,0,1,1.42.44A2.14,2.14,0,0,0,10.32,35.07Zm3.83,0H11.43a2.13,2.13,0,0,1,1.79-.83,2.48,2.48,0,0,1,1.18.29A2.2,2.2,0,0,0,14.15,35.07Zm-.68-1.85c0-.28.77-.74,1.93-.74s1.89.46,1.93.74h-.28a3.45,3.45,0,0,0-1.92.56A3.35,3.35,0,0,0,13.47,33.22Zm5.36,1.85H15.27a2.09,2.09,0,0,1,1.78-.83A2.09,2.09,0,0,1,18.83,35.07Z"/><path class="cls-2" d="M24.22,2.67a.5.5,0,0,0-.45-.27h-2.2a.52.52,0,0,0-.46.27.51.51,0,0,0,0,.52l1,1.53a.51.51,0,0,0,.43.23h.21a.49.49,0,0,0,.43-.23l1-1.53A.51.51,0,0,0,24.22,2.67Zm-1.55,1-.15-.22h.29Z"/></g></g></svg>