<svg xmlns="http://www.w3.org/2000/svg" viewBox="0 0 37 37"><defs><style>.cls-1{fill:none;}.cls-2{fill:#f275a5;}</style></defs><title>Ресурс 7</title><g id="Слой_2" data-name="Слой 2"><g id="Слой_1-2" data-name="Слой 1"><rect class="cls-1" width="37" height="37"/><path class="cls-2" d="M35.6,14.2l-1.78-2-1.6-1.76L32,10.29,30.49,8.58A2,2,0,0,0,29,7.93H23.2V6.69a2.29,2.29,0,0,0-2.28-2.28H3.17A2.29,2.29,0,0,0,.89,6.69V27A2.05,2.05,0,0,0,3,29.07h.91a4.11,4.11,0,0,0,8.13,0H25a4.1,4.1,0,0,0,8.12,0h1.73a1.25,1.25,0,0,0,1.25-1.25V22h0V15.51A2,2,0,0,0,35.6,14.2ZM7.94,31.41a2.94,2.94,0,1,1,2.93-2.94A2.94,2.94,0,0,1,7.94,31.41ZM22,27.89H12v0a.22.22,0,0,1,0-.08s0-.07,0-.11a.47.47,0,0,1,0-.09.45.45,0,0,0,0-.11s0-.05,0-.09l0-.1a.24.24,0,0,0,0-.09.28.28,0,0,1,0-.11l0-.07s0-.07,0-.11a.59.59,0,0,0,0-.08.66.66,0,0,1,0-.11l0-.06a.6.6,0,0,0-.06-.11l0-.06s0-.1-.08-.14,0,0,0,0l-.11-.16,0,0s0-.08-.07-.11l0-.05-.07-.09,0-.06a.34.34,0,0,0-.08-.09l-.05-.07a.27.27,0,0,0-.08-.07l0-.05-.08-.08-.06-.05a.28.28,0,0,0-.09-.07l-.06-.05a.71.71,0,0,1-.09-.07l-.06,0-.1-.07-.06,0L10.09,25s0,0-.05,0l-.16-.09s0,0,0,0l-.13-.06-.07,0-.1-.05-.07,0-.11,0-.07,0a.21.21,0,0,0-.11,0l-.09,0-.11,0-.08,0-.11,0-.09,0-.1,0H7.27l-.11,0-.09,0-.11,0-.08,0-.11,0-.09,0-.1,0-.08,0-.11,0-.06,0-.11.05-.07,0L6,24.82s0,0,0,0l-.16.09s0,0,0,0l-.12.07-.06,0-.09.07-.07,0-.08.07a.18.18,0,0,0-.07.05l-.09.07-.06.05a.6.6,0,0,0-.08.08L5,25.57a.27.27,0,0,1-.08.07l-.05.07-.07.09-.05.06s0,.07-.06.09l0,.05a.41.41,0,0,0-.07.11l0,0-.11.16a.06.06,0,0,0,0,0,.48.48,0,0,0-.09.14l0,.06a.6.6,0,0,0-.06.11l0,.06s0,.07,0,.11a.69.69,0,0,1,0,.08.58.58,0,0,0,0,.11l0,.07a.35.35,0,0,0,0,.11.47.47,0,0,1,0,.09.3.3,0,0,0,0,.1s0,.06,0,.09l0,.11s0,.05,0,.09,0,.07,0,.11a.28.28,0,0,0,0,.08v0H3A.88.88,0,0,1,2.07,27V22H22Zm0-20V20.84h-20V6.69a1.1,1.1,0,0,1,1.1-1.1H20.93A1.1,1.1,0,0,1,22,6.69V7.93Zm9.5,3.53L33,13.05,34.72,15a.8.8,0,0,1,.21.53v1.82h-8.8V11.46Zm-2.47,20a2.94,2.94,0,0,1-2.93-2.94,2.89,2.89,0,0,1,.29-1.27,2.86,2.86,0,0,1,1-1.19,3,3,0,0,1,1.6-.47,2.94,2.94,0,1,1,0,5.87ZM35,21.46H32a.6.6,0,0,0-.6.53.58.58,0,0,0,.58.64H35v4.93a.36.36,0,0,1-.36.35l-1.47,0v0a.25.25,0,0,1,0-.09s0-.07,0-.1,0-.06,0-.09,0-.07,0-.11,0-.05,0-.09l0-.1,0-.09,0-.1,0-.08a.54.54,0,0,1,0-.1.25.25,0,0,1,0-.09l0-.09s0-.06,0-.09,0,0,0-.09l0,0-.07-.13a.26.26,0,0,1,0-.09.87.87,0,0,1-.08-.14l0-.06L32.37,26a.34.34,0,0,0-.06-.06.28.28,0,0,0-.06-.08l-.07-.06a.55.55,0,0,0-.06-.08l-.07-.06L32,25.59l-.06-.06-.07-.07-.06-.06s-.05,0-.08-.07l-.06,0a.71.71,0,0,1-.09-.07l-.07-.05-.08-.07-.07,0L31.24,25l0,0L31,24.86l-.16-.09-.07,0-.11,0-.06,0-.11,0-.07,0s-.08,0-.11,0l-.08,0-.11,0-.07,0-.12,0h-.08l-.12,0H28.44a.35.35,0,0,0-.12,0h-.08l-.12,0-.07,0-.12,0-.08,0-.1.05s-.05,0-.07,0l-.11,0-.06,0a.43.43,0,0,0-.12.05l-.06,0-.14.07h0L27,25l0,0-.12.07-.07.05-.09.06-.07,0a.31.31,0,0,1-.09.07l-.06.05a.71.71,0,0,1-.09.07l-.06.05-.08.08-.06.06-.08.08-.05.06-.07.09,0,.06-.06.09-.05.06-.07.11,0,.05-.1.16s0,0,0,0a.61.61,0,0,0-.07.14l0,.07a.27.27,0,0,0-.06.1l0,.07a.66.66,0,0,0,0,.11s0,0,0,.07,0,.07,0,.11a.69.69,0,0,0,0,.08.29.29,0,0,0,0,.1s0,.06,0,.08l0,.11a.64.64,0,0,1,0,.07c0,.05,0,.08,0,.12a.22.22,0,0,0,0,.08.53.53,0,0,1,0,.12.13.13,0,0,0,0,.06s0,0,0,0h-1.8V9.12h5.84a.83.83,0,0,1,.59.26l.83.92H26a1,1,0,0,0-1,1v6.2a1,1,0,0,0,1,1h9v2.93Z"/><path class="cls-2" d="M7.94,27.31a1.18,1.18,0,1,0,0,2.35,1.16,1.16,0,0,0,1.17-1.17A1.17,1.17,0,0,0,7.94,27.31Z"/><path class="cls-2" d="M29.06,27.31a1.17,1.17,0,0,0-1.17,1.18,1.18,1.18,0,0,0,2.35,0A1.18,1.18,0,0,0,29.06,27.31Z"/><path class="cls-2" d="M11.88,8.7,10.11,6.94a.59.59,0,0,0-.83.83l.76.77A4.26,4.26,0,0,0,6.4,10.88a7.24,7.24,0,0,0-.63,1.54c-.09.32-.14.57-.17.73a.59.59,0,0,0,1.16.16,3.08,3.08,0,0,1,.13-.56,4.87,4.87,0,0,1,.53-1.29A3.16,3.16,0,0,1,10,9.71l-.74.75a.59.59,0,1,0,.83.83l1.75-1.76A.59.59,0,0,0,11.88,8.7Z"/><path class="cls-2" d="M16.74,14.4H15.8a4.42,4.42,0,0,0,.84-1.28,5,5,0,0,0-.11-4,5.64,5.64,0,0,0-.48-.92.59.59,0,0,0-.82-.15.58.58,0,0,0-.15.82l.1.18a5.43,5.43,0,0,1,.27.54,3.77,3.77,0,0,1,.12,3.06,3.58,3.58,0,0,1-.59.92v-.92a.59.59,0,0,0-1.17,0V15a.58.58,0,0,0,.59.58h2.34a.59.59,0,0,0,0-1.18Z"/><path class="cls-2" d="M14.29,17a.58.58,0,0,0-.81-.15l-.19.11a5.42,5.42,0,0,1-.54.27,3.78,3.78,0,0,1-3.05.12,3.46,3.46,0,0,1-.92-.6H9.7a.57.57,0,0,0,.58-.58.58.58,0,0,0-.58-.58H7.35a.58.58,0,0,0-.58.58v2.35a.59.59,0,0,0,1.17,0v-.94a4.87,4.87,0,0,0,1.28.84,5,5,0,0,0,4-.11,5.52,5.52,0,0,0,.92-.49A.59.59,0,0,0,14.29,17Z"/></g></g></svg>