<svg xmlns="http://www.w3.org/2000/svg" viewBox="0 0 37 37"><defs><style>.cls-1{fill:none;}.cls-2{fill:#70b770;}</style></defs><title>Ресурс 4</title><g id="Слой_2" data-name="Слой 2"><g id="Слой_1-2" data-name="Слой 1"><rect class="cls-1" width="37" height="37"/><path class="cls-2" d="M25.72,27.87a.73.73,0,1,0,.73.73A.73.73,0,0,0,25.72,27.87Z"/><path class="cls-2" d="M5.24,27.87A.73.73,0,1,0,6,28.6.73.73,0,0,0,5.24,27.87Z"/><path class="cls-2" d="M32.17,31.57h0a.68.68,0,0,0-.69.68.69.69,0,0,0,.69.69h0a.69.69,0,0,0,.69-.69A.68.68,0,0,0,32.17,31.57Z"/><path class="cls-2" d="M16.21,27.91h0a.69.69,0,1,0,0,1.38h0a.69.69,0,1,0,0-1.38Z"/><path class="cls-2" d="M36.05,5.33a1.74,1.74,0,0,0-.8-1,1.72,1.72,0,0,0-2.35.63L31.32,7.65,28.84,6.22A1.7,1.7,0,0,0,28,6a1.73,1.73,0,0,0-1.49.86,1.69,1.69,0,0,0-.17,1.3,1.73,1.73,0,0,0,.8,1l2.48,1.43-7,12.06a3.62,3.62,0,0,0-2-.63h-.34V19.68a.69.69,0,0,0-.69-.69H18v-.5a1.88,1.88,0,0,0-1.87-1.88H12.64a1.88,1.88,0,0,0-1.87,1.88V19h-.41a.69.69,0,0,0-.69.69v2.45a3.62,3.62,0,0,0-2.76,2.46,4.22,4.22,0,0,0-1.67-.34,4.35,4.35,0,1,0,2.41,8H23.31a4.31,4.31,0,0,0,2.41.73h4.45a.69.69,0,0,0,.69-.69.68.68,0,0,0-.69-.68H28.88a4.34,4.34,0,0,0-3.16-7.32h0L35.88,6.64A1.81,1.81,0,0,0,36.05,5.33ZM27.81,8a.32.32,0,0,1-.16-.21.36.36,0,0,1,0-.26.35.35,0,0,1,.3-.17.33.33,0,0,1,.17,0l2.48,1.43-.34.6ZM12.14,18.49a.5.5,0,0,1,.5-.5h3.48a.5.5,0,0,1,.5.5V19H12.14Zm-1.09,1.87h7.83v1.7H11.05ZM8.21,28.6a3,3,0,1,1-3-3,3,3,0,0,1,3,3ZM9,30.84a4.45,4.45,0,0,0,.57-1.55h4.56a.69.69,0,0,0,0-1.38H9.53A4.38,4.38,0,0,0,9,26.36H22a4.36,4.36,0,0,0,0,4.48ZM8.23,25a2.25,2.25,0,0,1,2.13-1.55H20.6a2.25,2.25,0,0,1,1.67.76l0,0a2.18,2.18,0,0,1,.42.74Zm17.49.65a3,3,0,1,1-3,3A3,3,0,0,1,25.72,25.63ZM34.68,6,24,24.46a3.94,3.94,0,0,0-.37-.74l7.5-13h0l1-1.79h0l1.92-3.32a.34.34,0,0,1,.47-.13.4.4,0,0,1,.16.21A.33.33,0,0,1,34.68,6Z"/></g></g></svg>