<svg xmlns="http://www.w3.org/2000/svg" viewBox="0 0 37 37"><defs><style>.cls-1{fill:none;}.cls-2{fill:#ffb74d;}</style></defs><title>Ресурс 8</title><g id="Слой_2" data-name="Слой 2"><g id="Слой_1-2" data-name="Слой 1"><rect class="cls-1" width="37" height="37"/><path class="cls-2" d="M29.44,5.21a2.07,2.07,0,0,0-.9-.51,2.77,2.77,0,0,0-.78-1.56l0,0a2.63,2.63,0,0,0-1.89-.75H23a4.24,4.24,0,0,0-1.2-1A4,4,0,0,0,19.94.89H12.81a4,4,0,0,0-4,3.87,1.62,1.62,0,0,0-.66.45s0,0,0,.06a1.92,1.92,0,0,0,0,2.7,1.88,1.88,0,0,0,1,.54V28.58a3.94,3.94,0,0,0-1,.72A4,4,0,0,0,7,32.12a4,4,0,0,0,1.17,2.82A4,4,0,0,0,11,36.11a4,4,0,0,0,2.82-1.17,4.08,4.08,0,0,0,.5-.63H25.09a3.28,3.28,0,0,0,3.3-3.3V8.51A2.08,2.08,0,0,0,29.44,8a2,2,0,0,0,0-2.76ZM11,3.08a2.66,2.66,0,0,1,1.83-.75h7.07a2.63,2.63,0,0,1,1.2.3,2.5,2.5,0,0,1,.9.78.73.73,0,0,0,.63.36h3.2a1.27,1.27,0,0,1,.9.36l0,0a1.31,1.31,0,0,1,.3.48H10.23A2.93,2.93,0,0,1,11,3.08Zm2.58,29.34a.11.11,0,0,1,0,.09c0,.06,0,.12,0,.18a.43.43,0,0,1-.06.18s0,0,0,.06,0,.12-.06.18,0,.06,0,.09a2.56,2.56,0,0,1-.51.75,2.47,2.47,0,0,1-1.8.75A2.66,2.66,0,0,1,9.18,34a2.54,2.54,0,0,1-.75-1.83,2.66,2.66,0,0,1,.75-1.83,2.55,2.55,0,0,1,1-.63l.33-.09h.09a1.58,1.58,0,0,1,.39,0,2.66,2.66,0,0,1,1.83.75,2.54,2.54,0,0,1,.75,1.83A1.13,1.13,0,0,1,13.56,32.42ZM27,31a1.89,1.89,0,0,1-1.92,1.89H14.93c0-.06,0-.12,0-.18s0-.12,0-.21,0-.27,0-.39a4,4,0,0,0-4-4h-.42V8.54H27V31ZM28.39,7A.5.5,0,0,1,28,7.1H9.51A.51.51,0,0,1,9,6.59a.63.63,0,0,1,.12-.33l0,0a.5.5,0,0,1,.36-.15H28a.51.51,0,0,1,.36.87Z"/><path class="cls-2" d="M23.59,16.72a5.57,5.57,0,0,0-1.85-2,.72.72,0,1,0-.78,1.2,3.82,3.82,0,0,1,1.38,1.47,4,4,0,0,1,.51,1.94,4.06,4.06,0,0,1-1.2,2.88,4,4,0,0,1-2.88,1.2,4.06,4.06,0,0,1-2.88-1.2,4,4,0,0,1-1.2-2.88,4.06,4.06,0,0,1,1.2-2.87,3.68,3.68,0,0,1,1.56-1,.73.73,0,0,0,.33.78.67.67,0,0,0,1-.27l.6-1.05a1436628196810.19,1436628196810.19,0,0,0,.06-.06.11.11,0,0,0,0-.09v0s0-.06,0-.09v-.27s0-.06,0-.12v0s0-.06-.06-.09l0,0-.09-.09-.93-.84a.72.72,0,0,0-1,.06.73.73,0,0,0-.09.84,5.58,5.58,0,0,0-2.34,1.38,5.48,5.48,0,0,0-1.61,3.86,5.4,5.4,0,0,0,1.61,3.87,5.8,5.8,0,0,0,3.93,1.59,5.37,5.37,0,0,0,3.87-1.62,5.53,5.53,0,0,0,1.61-3.87A5.41,5.41,0,0,0,23.59,16.72Z"/></g></g></svg>