<svg xmlns="http://www.w3.org/2000/svg" viewBox="0 0 37 37"><defs><style>.cls-1{fill:none;}.cls-2{fill:#8d9bd8;}</style></defs><title>Ресурс 9</title><g id="Слой_2" data-name="Слой 2"><g id="Слой_1-2" data-name="Слой 1"><rect class="cls-1" width="37" height="37"/><path class="cls-2" d="M16.94,12.81H14.58a.58.58,0,1,0,0,1.16h2.36a.39.39,0,0,1,.39.4v1.39a.59.59,0,0,0,1.17,0V14.37A1.56,1.56,0,0,0,16.94,12.81Z"/><path class="cls-2" d="M22.4,12.81h-2a.58.58,0,0,0,0,1.16h2a.58.58,0,1,0,0-1.16Z"/><path class="cls-2" d="M19.48,18.09h-2a.59.59,0,0,0-.58.59.58.58,0,0,0,.58.58h2a.58.58,0,0,0,.58-.58A.59.59,0,0,0,19.48,18.09Z"/><path class="cls-2" d="M29.35,34.92h-.57V28.49A7.87,7.87,0,0,0,25.32,22a7.47,7.47,0,0,0-1.53-.81,7.91,7.91,0,0,0,2.55-5.08,2.88,2.88,0,0,0,.16-5.17c0-.09-.36-5.85-.36-5.85a3.36,3.36,0,0,0-2.63-3L18.62.91a.57.57,0,0,0-.26,0L13.47,2a3.36,3.36,0,0,0-2.63,3s-.36,5.76-.36,5.85a2.88,2.88,0,0,0,.16,5.17,7.91,7.91,0,0,0,2.55,5.08,7.47,7.47,0,0,0-1.53.81A7.87,7.87,0,0,0,8.2,28.49v6.43H7.65a.58.58,0,0,0,0,1.16H15a.45.45,0,0,0,.16,0h6.76a.45.45,0,0,0,.16,0h7.32a.58.58,0,0,0,0-1.16Zm-3-22.67a1.7,1.7,0,0,1,0,2.39ZM10.6,14.64a1.7,1.7,0,0,1,0-2.39ZM23.25,3.14a2.22,2.22,0,0,1,1.73,2l.18,2.35c-.43-.1-.87-.18-1.31-.26l-.11-2.17a4.2,4.2,0,0,0-.56-1.93Zm-.67,2,.1,1.93a31.15,31.15,0,0,0-3.61-.27V2.29l2.46.84A2.2,2.2,0,0,1,22.58,5.12Zm-8.18,0a2.2,2.2,0,0,1,1-2l2.46-.84V6.78a31.15,31.15,0,0,0-3.61.27Zm-2.4,0a2.22,2.22,0,0,1,1.73-2h.07a4.2,4.2,0,0,0-.56,1.93l-.11,2.17c-.44.08-.87.16-1.31.26Zm-.36,5.59v0l.09-2a30.16,30.16,0,0,1,13.5,0l.09,2v0a.57.57,0,0,1-.28.53.54.54,0,0,1-.6,0,11.39,11.39,0,0,0-11.94,0,.54.54,0,0,1-.6,0A.57.57,0,0,1,11.64,10.73Zm.12,4.57V12.45a1.7,1.7,0,0,0,1.37-.2,10.21,10.21,0,0,1,10.72,0,1.68,1.68,0,0,0,.91.26,1.82,1.82,0,0,0,.46-.06V15.3a6.72,6.72,0,0,1-2.85,5.5V19.43a2.9,2.9,0,0,0-2.89-2.89h-2a2.9,2.9,0,0,0-2.89,2.89V20.8A6.72,6.72,0,0,1,11.76,15.3ZM19.23,22V20.42a.59.59,0,0,0-1.17,0V22a6.69,6.69,0,0,1-2.29-.56v-2A1.74,1.74,0,0,1,17.5,17.7h2a1.74,1.74,0,0,1,1.73,1.73v2h0A6.53,6.53,0,0,1,19.23,22Zm1.08,1v2a1.82,1.82,0,0,1-3.64,0V23a7.64,7.64,0,0,0,3.64,0Zm-8,11.94H9.37V32.18h2.89Zm0-3.9H9.37V30.4h2.89Zm.06-1.79h-3v-.74a6.65,6.65,0,0,1,4.19-6.23v4.18a2,2,0,0,1-.5,1.3A3,3,0,0,0,12.32,29.23Zm9,5.69H15.69V33h5.59Zm0-3.05H15.69v-.7h5.59Zm2.27,3.05h-1.1V30.59a.58.58,0,0,0-.58-.58H15.11a.58.58,0,0,0-.58.58v4.33h-1.1V29.81a1.91,1.91,0,0,1,.5-1.29,3.12,3.12,0,0,0,.8-2.08v-4.2a7.76,7.76,0,0,0,.77.37V25a3,3,0,0,0,6,0V22.61a7.76,7.76,0,0,0,.77-.37v4.2a3.12,3.12,0,0,0,.8,2.08,1.91,1.91,0,0,1,.5,1.29Zm4.06,0H24.72V32.18h2.89v2.74Zm0-3.9H24.72V30.4h2.89V31Zm0-1.79H24.66a3,3,0,0,0-.74-1.49,2,2,0,0,1-.5-1.3V22.26a6.65,6.65,0,0,1,4.19,6.23Z"/><circle class="cls-2" cx="15.49" cy="15.02" r="0.58"/><circle class="cls-2" cx="21.5" cy="15.02" r="0.58"/></g></g></svg>