<svg xmlns="http://www.w3.org/2000/svg" viewBox="0 0 37 37"><defs><style>.cls-1{fill:none;}.cls-2{fill:#8698e2;}</style></defs><title>Ресурс 10</title><g id="Слой_2" data-name="Слой 2"><g id="Слой_1-2" data-name="Слой 1"><rect class="cls-1" width="37" height="37"/><path class="cls-2" d="M6.71,19.25,5.55,20.42a.58.58,0,1,0,.82.83l1.17-1.17a.59.59,0,0,0,0-.83A.6.6,0,0,0,6.71,19.25Z"/><path class="cls-2" d="M7.13,17.92a.59.59,0,0,0-.59-.59H4.79a.59.59,0,0,0,0,1.17H6.54A.59.59,0,0,0,7.13,17.92Z"/><path class="cls-2" d="M6.3,14.52a.58.58,0,0,0-.82.82l1.23,1.24a.59.59,0,0,0,.83,0,.59.59,0,0,0,0-.83Z"/><path class="cls-2" d="M25.12,23.32a9.85,9.85,0,0,0,0-9.64A7.83,7.83,0,0,1,24,9.76V7.42h1.17a.58.58,0,0,0,.58-.59V3.33a.58.58,0,0,0-.58-.58H24V1H13.54V2.75H12.38a.58.58,0,0,0-.59.58v3.5a.58.58,0,0,0,.59.59h1.16V9.76a7.92,7.92,0,0,1-1.07,3.92,9.85,9.85,0,0,0,0,9.64,7.92,7.92,0,0,1,1.07,3.92v2.34H12.38a.58.58,0,0,0-.59.59v3.5a.58.58,0,0,0,.59.58h1.16V36H24V34.25h1.17a.58.58,0,0,0,.58-.58v-3.5a.58.58,0,0,0-.58-.59H24V27.24A7.83,7.83,0,0,1,25.12,23.32ZM14.71,2.17h8.17v.58H14.71ZM13,6.25V3.92H24.63V6.25H13Zm9.92,28.58H14.71v-.58h8.17Zm1.75-4.08v2.33H13V30.75H24.63Zm-9.92-1.17V27.24a9.16,9.16,0,0,0-1.23-4.51,8.7,8.7,0,0,1,0-8.47,9.12,9.12,0,0,0,1.23-4.5V7.42h8.17V9.76a9.05,9.05,0,0,0,1.23,4.51,8.7,8.7,0,0,1,0,8.47,9,9,0,0,0-1.23,4.5v2.34Z"/><path class="cls-2" d="M29.88,16.68a.62.62,0,0,0,.41-.17l1.16-1.17a.58.58,0,0,0-.82-.82l-1.17,1.16a.59.59,0,0,0,0,.83A.63.63,0,0,0,29.88,16.68Z"/><path class="cls-2" d="M32.21,17.33H30.46a.59.59,0,0,0,0,1.17h1.75a.59.59,0,0,0,0-1.17Z"/><path class="cls-2" d="M30.29,19.18a.6.6,0,0,0-.83,0,.59.59,0,0,0,0,.83l1.24,1.24a.58.58,0,1,0,.82-.83Z"/></g></g></svg>