<svg xmlns="http://www.w3.org/2000/svg" viewBox="0 0 37 37"><defs><style>.cls-1{fill:none;}.cls-2{fill:#e57373;}</style></defs><title>Ресурс 11</title><g id="Слой_2" data-name="Слой 2"><g id="Слой_1-2" data-name="Слой 1"><rect class="cls-1" width="37" height="37"/><path class="cls-2" d="M36.11,23.49H34.34V22.31a.58.58,0,0,0-.58-.58H30.24a.58.58,0,0,0-.59.58v1.18H27.89V20.55A.58.58,0,0,0,27.3,20H26.13V18.79a.58.58,0,0,0-.59-.58H22V14.1a.58.58,0,0,0-.59-.59H20.26V9.4h.59v1.18a.58.58,0,0,0,.58.58h4.26a3.37,3.37,0,0,0,3.37-3.37V5.15a3.38,3.38,0,0,0-3.37-3.38H22.61a3.47,3.47,0,0,0-2.35.94V1.77a.58.58,0,0,0-.59-.58H17.33a.58.58,0,0,0-.59.58v.94a3.47,3.47,0,0,0-2.35-.94H11.31A3.38,3.38,0,0,0,7.94,5.15V7.79a3.37,3.37,0,0,0,3.37,3.37h4.26a.58.58,0,0,0,.58-.58V9.4h.59v4.11H15.57a.58.58,0,0,0-.59.59v4.11H11.46a.58.58,0,0,0-.59.58V20H9.7a.58.58,0,0,0-.59.58v2.94H7.35V22.31a.58.58,0,0,0-.59-.58H3.24a.58.58,0,0,0-.58.58v1.18H.89V34.05H2.66v1.18a.58.58,0,0,0,.58.58H6.76a.58.58,0,0,0,.59-.58V34.05h22.3v1.18a.58.58,0,0,0,.59.58h3.52a.58.58,0,0,0,.58-.58V34.05h1.77Zm-17-21.13V3.45H19l-.16,0-.36,0h0l-.36,0-.16,0h-.06V2.36ZM15.57,8.23a.58.58,0,0,0-.59.59V10H11.31a2.21,2.21,0,0,1-2.2-2.2V5.15A2.2,2.2,0,0,1,11.31,3h3.08A2.27,2.27,0,0,1,16,3.61l.1.1a3.49,3.49,0,0,0,2,1h0l.35,0,.35,0h0a3.49,3.49,0,0,0,2-1l.1-.1A2.27,2.27,0,0,1,22.61,3h3.08a2.2,2.2,0,0,1,2.2,2.2V7.79a2.21,2.21,0,0,1-2.2,2.2H22V8.82a.58.58,0,0,0-.59-.59H15.57ZM17.91,9.4h1.18v4.11H17.91Zm-1.76,5.29h4.7v3.52h-4.7ZM12,19.38H25V20H12Zm-1.76,1.76H26.72v2.35H10.28ZM2.07,32.88V24.66h.59v8.22Zm4.11,1.76H3.83V22.9H6.18Zm1.17-1.76V24.66h22.3v8.22Zm25.82,1.76H30.82V22.9h2.35V34.64Zm1.76-1.76h-.59V24.66h.59Z"/></g></g></svg>