<svg xmlns="http://www.w3.org/2000/svg" viewBox="0 0 25.1 28" width="24px" height="24px">
  <title>notification</title>
  <g id="Layer_2" data-name="Layer 2">
    <g id="Слой_1" data-name="Слой 1">
      <g>
        <path d="M24.63,22.89c-3-1.34-3.09-7.11-3.09-7.26V11.76A9,9,0,0,0,16,3.47a3.48,3.48,0,0,0-7,0,9,9,0,0,0-5.51,8.29v3.87c0,.15-.12,5.91-3.09,7.26A.79.79,0,0,0,.79,24.4H8.33a4.44,4.44,0,0,0,1.17,2.28,4.17,4.17,0,0,0,6.09,0,4.44,4.44,0,0,0,1.17-2.28h7.54a.79.79,0,0,0,.33-1.51Zm-3.92-2.76a8.76,8.76,0,0,0,1.38,2.69H3a8.76,8.76,0,0,0,1.38-2.69ZM12.55,1.58A1.91,1.91,0,0,1,14.38,3a9,9,0,0,0-3.66,0A1.91,1.91,0,0,1,12.55,1.58ZM5.13,15.64V11.76a7.41,7.41,0,0,1,14.83,0v3.88a16.48,16.48,0,0,0,.33,2.9H4.8A16.49,16.49,0,0,0,5.13,15.64Zm7.41,10.79a2.77,2.77,0,0,1-2.59-2h5.19A2.77,2.77,0,0,1,12.55,26.42Z" fill="#fff"/>
        <path d="M12.55,5.46a6.17,6.17,0,0,0-6.16,6.16.79.79,0,1,0,1.58,0A4.59,4.59,0,0,1,12.55,7a.79.79,0,1,0,0-1.58Z" fill="#fff"/>
      </g>
    </g>
  </g>
</svg>
