<?xml version="1.0" encoding="iso-8859-1"?>
<!-- Generator: Adobe Illustrator 19.0.0, SVG Export Plug-In . SVG Version: 6.00 Build 0)  -->
<svg xmlns="http://www.w3.org/2000/svg" xmlns:xlink="http://www.w3.org/1999/xlink" version="1.1" id="Layer_1" x="0px" y="0px" viewBox="0 0 512 512" style="enable-background:new 0 0 512 512;" xml:space="preserve" width="512px" height="512px">
<g>
	<g>
		<path d="M501.939,140.449c5.579-0.076,10.061-4.619,10.061-10.198v-27.174c0-5.633-4.566-10.199-10.199-10.199H10.199    C4.566,92.878,0,97.444,0,103.077v27.174c0,2.729,1.094,5.344,3.037,7.262c1.943,1.916,4.579,2.951,7.303,2.936l0.366-0.01    c11.73,0.041,21.261,9.596,21.261,21.336c0,11.736-9.525,21.289-21.25,21.336l-0.377-0.01c-2.725-0.016-5.359,1.02-7.303,2.936    C1.093,187.953,0,190.569,0,193.298v31.177c0,2.729,1.094,5.344,3.037,7.262c1.943,1.916,4.579,2.961,7.303,2.936l0.366-0.01    c11.73,0.041,21.261,9.596,21.261,21.336c0,11.735-9.525,21.289-21.251,21.336l-0.376-0.01c-2.725-0.005-5.359,1.021-7.303,2.936    C1.094,282.179,0,284.794,0,287.524v31.177c0,2.729,1.094,5.345,3.037,7.262c1.943,1.915,4.579,2.942,7.303,2.936l0.366-0.01    c11.73,0.041,21.261,9.596,21.261,21.336c0,11.737-9.526,21.292-21.253,21.336l-0.374-0.01c-2.725-0.024-5.359,1.02-7.303,2.936    C1.094,376.405,0,379.02,0,381.749v27.174c0,5.633,4.566,10.199,10.199,10.199h491.602c5.633,0,10.199-4.566,10.199-10.199    v-27.174c0-5.579-4.484-10.123-10.061-10.198c-11.602-0.156-21.041-9.723-21.041-21.327c0-11.603,9.439-21.169,21.041-21.326    c5.579-0.075,10.061-4.619,10.061-10.198v-31.177c0-5.579-4.484-10.123-10.061-10.198c-11.602-0.156-21.041-9.723-21.041-21.326    c0-11.603,9.439-21.169,21.041-21.326c5.579-0.075,10.061-4.619,10.061-10.198v-31.177c0-5.579-4.484-10.123-10.061-10.198    c-11.602-0.156-21.041-9.723-21.041-21.326C480.897,150.172,490.336,140.605,501.939,140.449z M491.602,202.118v13.539    c-17.85,4.742-31.104,21.113-31.104,40.343c0,19.23,13.253,35.6,31.104,40.343v13.539c-17.85,4.743-31.104,21.113-31.104,40.343    c0,19.23,13.253,35.6,31.104,40.343v8.156h-132.59V380.43c0-5.633-4.566-10.199-10.199-10.199    c-5.633,0-10.199,4.566-10.199,10.199v18.294H20.398v-7.919c18.316-4.409,31.967-20.931,31.967-40.581    s-13.652-36.171-31.967-40.581V296.58c18.316-4.409,31.967-20.93,31.967-40.581c0-19.651-13.652-36.17-31.967-40.58v-13.065    c18.316-4.409,31.967-20.93,31.967-40.581c0-19.651-13.652-36.17-31.967-40.58v-7.919h318.215v18.294    c0,5.633,4.566,10.199,10.199,10.199c5.633,0,10.199-4.566,10.199-10.199v-18.294h132.59v8.156    c-17.85,4.743-31.104,21.113-31.104,40.343S473.752,197.375,491.602,202.118z" fill="#FFFFFF"/>
	</g>
</g>
<g>
	<g>
		<path d="M348.813,171.143c-5.633,0-10.199,4.566-10.199,10.199v49.772c0,5.633,4.566,10.199,10.199,10.199    c5.633,0,10.199-4.566,10.199-10.199v-49.772C359.012,175.709,354.446,171.143,348.813,171.143z" fill="#FFFFFF"/>
	</g>
</g>
<g>
	<g>
		<path d="M348.813,270.687c-5.633,0-10.199,4.566-10.199,10.199v49.772c0,5.633,4.566,10.199,10.199,10.199    c5.633,0,10.199-4.566,10.199-10.199v-49.772C359.012,275.253,354.446,270.687,348.813,270.687z" fill="#FFFFFF"/>
	</g>
</g>
<g>
	<g>
		<path d="M278.438,158.088H108.112c-5.633,0-10.199,4.566-10.199,10.199s4.566,10.199,10.199,10.199h170.327    c5.633,0,10.199-4.566,10.199-10.199S284.071,158.088,278.438,158.088z" fill="#FFFFFF"/>
	</g>
</g>
<g>
	<g>
		<path d="M196.403,209.186h-88.291c-5.633,0-10.199,4.566-10.199,10.199c0,5.633,4.566,10.199,10.199,10.199h88.291    c5.633,0,10.199-4.566,10.199-10.199C206.602,213.752,202.036,209.186,196.403,209.186z" fill="#FFFFFF"/>
	</g>
</g>
<g>
	<g>
		<path d="M254.106,209.186h-15.643c-5.633,0-10.199,4.566-10.199,10.199c0,5.633,4.566,10.199,10.199,10.199h15.643    c5.633,0,10.199-4.566,10.199-10.199C264.305,213.752,259.739,209.186,254.106,209.186z" fill="#FFFFFF"/>
	</g>
</g>
<g>
</g>
<g>
</g>
<g>
</g>
<g>
</g>
<g>
</g>
<g>
</g>
<g>
</g>
<g>
</g>
<g>
</g>
<g>
</g>
<g>
</g>
<g>
</g>
<g>
</g>
<g>
</g>
<g>
</g>
</svg>
