<svg xmlns="http://www.w3.org/2000/svg" viewBox="0 0 19.66 34.63" width="20px" height="27px">
  <title>energy-icon</title>
  <g id="Layer_2" data-name="Layer 2">
    <g id="Слой_1" data-name="Слой 1">
      <path d="M19.6,11.89a.55.55,0,0,0-.52-.35H12.27L19,.87a.52.52,0,0,0,0-.58A.61.61,0,0,0,18.5,0H9.26a.61.61,0,0,0-.52.29L.09,17.61a.52.52,0,0,0,0,.58.69.69,0,0,0,.52.29H6.55L.09,33.88a.58.58,0,0,0,.23.69.43.43,0,0,0,.29.06.66.66,0,0,0,.46-.17L19.54,12.53A.62.62,0,0,0,19.6,11.89Zm-17,18.88,5.31-12.7a.56.56,0,0,0-.06-.52.71.71,0,0,0-.46-.23H1.53L9.61,1.15h7.85L10.65,11.83a.52.52,0,0,0,0,.58.61.61,0,0,0,.52.29h6.7Z" fill="#fff"/>
    </g>
  </g>
</svg>
