<?xml version="1.0" encoding="UTF-8"?>
<!DOCTYPE svg PUBLIC "-//W3C//DTD SVG 1.1//EN" "http://www.w3.org/Graphics/SVG/1.1/DTD/svg11.dtd">
<!-- Creator: CorelDRAW X8 -->
<svg xmlns="http://www.w3.org/2000/svg" xml:space="preserve" width="200mm" height="33.498mm" version="1.1" style="shape-rendering:geometricPrecision; text-rendering:geometricPrecision; image-rendering:optimizeQuality; fill-rule:evenodd; clip-rule:evenodd"
viewBox="0 0 20000 3350"
 xmlns:xlink="http://www.w3.org/1999/xlink">
 <defs>
  <style type="text/css">
   <![CDATA[
    .fil0 {fill:#3C3C3B}
    .fil1 {fill:#93231E}
    .fil2 {fill:#3C3C3B;fill-rule:nonzero}
   ]]>
  </style>
 </defs>
 <g id="Слой_x0020_1">
  <metadata id="CorelCorpID_0Corel-Layer"/>
  <g id="_802310634336">
   <path class="fil0" d="M793 2449l2456 0c81,0 145,-57 187,-115 64,105 75,187 19,257l-331 415c-56,70 -117,116 -198,116l0 0 -2393 0c-28,-64 -44,-147 -4,-217l264 -456z"/>
   <path class="fil0" d="M3888 3067l0 -1630c0,-9 3,-17 9,-23 6,-7 16,-13 31,-17 14,-4 33,-7 56,-10 23,-2 53,-3 88,-3 36,0 66,1 89,3 24,3 42,6 56,10 14,4 24,10 29,17 6,7 9,14 9,23l0 913c0,28 0,58 -1,91 -1,32 -3,62 -5,93l3 0c16,-27 36,-59 60,-96 24,-37 49,-74 75,-109l628 -893c7,-9 14,-17 21,-24 8,-6 18,-11 30,-16 13,-5 28,-8 47,-10 19,-1 42,-2 71,-2 36,0 64,1 86,3 22,3 39,6 53,10 12,4 21,10 27,17 5,7 7,15 7,25l0 1629c0,10 -3,17 -9,24 -6,6 -16,12 -30,16 -14,5 -33,8 -56,10 -23,3 -51,4 -86,4l-6 0c-34,0 -63,-1 -86,-4 -23,-2 -42,-5 -55,-10 -14,-4 -23,-10 -29,-16 -6,-7 -8,-14 -8,-24l0 -907c0,-35 0,-69 1,-102 1,-33 2,-63 4,-88l-3 0c-7,12 -16,26 -26,43 -10,17 -21,34 -33,52 -12,18 -24,37 -37,56 -13,19 -26,37 -39,55l-628 893c-7,10 -15,18 -23,25 -8,8 -18,13 -31,17 -12,4 -28,6 -46,8 -17,1 -39,2 -66,2l-8 0c-34,0 -62,-1 -84,-4 -22,-2 -40,-5 -52,-10 -13,-4 -21,-10 -26,-17 -5,-6 -7,-15 -7,-24zm6416 -1l0 1 0 1c0,9 -3,17 -9,24 -5,6 -15,12 -30,16 -14,5 -34,8 -57,10 -24,3 -54,4 -91,4l-7 0c-38,0 -69,-1 -93,-4 -25,-2 -45,-5 -60,-10 -14,-5 -26,-12 -33,-20 -7,-9 -13,-19 -17,-31l-145 -384c-20,-56 -42,-102 -64,-140 -23,-38 -47,-68 -74,-92 -27,-23 -58,-40 -92,-50 -35,-9 -73,-14 -116,-14l-82 0 0 689c0,10 -3,18 -9,25 -5,6 -15,12 -29,17 -14,5 -33,8 -56,10 -23,3 -51,4 -86,4l-6 0c-34,0 -63,-1 -86,-4 -23,-2 -42,-5 -56,-10 -14,-5 -24,-11 -30,-17 -7,-7 -9,-15 -9,-25l0 -1627c0,-10 2,-18 9,-25 6,-7 16,-13 30,-17 14,-4 33,-7 56,-10 24,-2 54,-3 89,-3 36,0 66,1 89,3 23,3 42,6 56,10 14,4 24,10 29,17 6,7 9,15 9,25l0 646 82 0c42,0 78,-5 110,-16 32,-10 60,-27 86,-50 26,-23 49,-53 70,-90 21,-37 41,-82 61,-136l121 -344c5,-12 10,-23 17,-31 6,-8 17,-15 31,-20 15,-5 34,-8 57,-11 24,-2 56,-3 96,-3 36,0 66,1 90,3 24,3 43,5 56,9 13,5 22,10 27,16 5,7 7,15 7,25 0,12 -2,26 -6,43 -4,16 -11,39 -22,66l-121 307c-23,56 -45,104 -67,144 -22,40 -46,74 -71,102 -24,28 -51,51 -78,69 -27,17 -58,32 -91,44l0 1c37,15 71,32 101,51 30,19 58,44 85,73 26,29 52,65 76,107 24,43 49,95 74,158l148 356c15,36 24,61 27,75 2,14 4,25 4,33zm-1781 56l-7 0c-34,0 -62,-1 -85,-4 -24,-2 -43,-5 -56,-10 -15,-4 -25,-10 -30,-16 -7,-7 -9,-14 -9,-24l0 -1384 -673 0 0 1384c0,10 -3,17 -9,24 -6,6 -16,12 -30,16 -14,5 -33,8 -56,10 -23,3 -51,4 -86,4l-7 0c-34,0 -62,-1 -85,-4 -24,-2 -43,-5 -57,-10 -14,-4 -24,-10 -29,-16 -6,-7 -8,-14 -8,-24l0 -1566c0,-37 10,-65 29,-83 20,-18 45,-27 78,-27l1194 0c33,0 59,9 78,27 18,18 27,46 27,83l0 1566c0,10 -3,17 -8,24 -5,6 -15,12 -29,16 -14,5 -33,8 -57,10 -23,3 -51,4 -85,4zm-1671 0l-7 0c-35,0 -64,-1 -87,-4 -23,-3 -42,-6 -55,-11 -14,-4 -24,-10 -29,-17 -7,-7 -10,-15 -10,-24l0 -696 -675 0 0 696c0,9 -3,17 -9,24 -5,7 -15,13 -29,17 -14,5 -33,8 -56,11 -23,3 -51,4 -86,4l-6 0c-34,0 -62,-1 -86,-4 -23,-3 -42,-6 -56,-11 -14,-4 -24,-10 -30,-17 -6,-7 -9,-15 -9,-24l0 -1626c0,-9 3,-17 9,-24 6,-7 16,-13 30,-17 14,-5 33,-8 56,-11 24,-3 54,-4 89,-4 36,0 66,1 89,4 23,3 42,6 56,11 14,4 24,10 29,17 6,7 9,15 9,24l0 632 675 0 0 -632c0,-9 3,-17 10,-24 5,-7 15,-13 29,-17 13,-5 32,-8 55,-11 24,-3 54,-4 90,-4 36,0 65,1 88,4 24,3 42,6 56,11 14,4 24,10 30,17 6,7 9,15 9,24l0 1626c0,9 -3,17 -9,24 -6,7 -16,13 -30,17 -14,5 -32,8 -56,11 -22,3 -50,4 -84,4z"/>
   <path class="fil1" d="M2681 2379l-1227 -2127c-41,-71 -123,-98 -194,-105 60,-108 125,-158 213,-145l526 79c88,14 158,44 199,114l0 0 1196 2072c-42,57 -106,112 -186,112l-527 0z"/>
   <path class="fil1" d="M1677 778l-1229 2127c-41,71 -23,155 6,220 -123,2 -199,-29 -232,-112l-194 -495c-33,-83 -41,-158 -1,-229l0 0 1196 -2072c70,8 150,35 190,105l264 456z"/>
   <path class="fil2" d="M20000 2332c0,13 0,24 -2,33 -1,9 -2,17 -5,22 -2,6 -5,10 -8,12 -3,3 -7,4 -11,4l-215 0 0 695c0,5 -2,9 -5,12 -3,4 -7,7 -14,9 -7,2 -16,4 -27,5 -11,1 -26,2 -42,2 -17,0 -31,-1 -43,-2 -11,-1 -20,-3 -27,-5 -6,-2 -11,-5 -14,-9 -3,-3 -4,-7 -4,-12l0 -695 -216 0c-4,0 -8,-1 -11,-4 -3,-2 -6,-6 -8,-12 -2,-5 -4,-13 -5,-22 -1,-9 -2,-20 -2,-33 0,-13 1,-25 2,-34 1,-9 3,-17 5,-22 2,-6 5,-10 8,-12 3,-3 7,-4 11,-4l607 0c4,0 8,1 11,4 3,2 6,6 8,12 3,5 4,13 5,22 2,9 2,21 2,34zm-783 766c0,5 -2,9 -5,12 -3,4 -7,7 -14,9 -7,2 -15,4 -27,5 -11,1 -25,2 -41,2 -17,0 -32,-1 -43,-2 -12,-1 -20,-3 -27,-5 -6,-2 -11,-5 -14,-9 -3,-3 -4,-7 -4,-12l0 -348 -323 0 0 348c0,5 -2,9 -4,12 -3,4 -8,7 -14,9 -7,2 -16,4 -27,5 -11,1 -25,2 -42,2 -17,0 -31,-1 -42,-2 -12,-1 -21,-3 -27,-5 -7,-2 -11,-5 -14,-9 -3,-3 -5,-7 -5,-12l0 -814c0,-4 2,-8 5,-12 3,-3 7,-6 14,-9 6,-2 15,-4 27,-5 11,-1 25,-2 42,-2 17,0 31,1 42,2 11,1 20,3 27,5 6,3 11,6 14,9 2,4 4,8 4,12l0 317 323 0 0 -317c0,-4 1,-8 4,-12 3,-3 8,-6 14,-9 7,-2 15,-4 27,-5 11,-1 26,-2 43,-2 16,0 30,1 41,2 12,1 20,3 27,5 7,3 11,6 14,9 3,4 5,8 5,12l0 814zm-850 -45c0,13 -1,24 -2,33 -1,8 -3,15 -5,21 -2,5 -5,9 -8,11 -3,3 -7,4 -11,4l-433 0c-14,0 -26,-4 -36,-13 -10,-9 -15,-23 -15,-42l0 -752c0,-19 5,-33 15,-42 10,-9 22,-13 36,-13l431 0c4,0 7,1 10,4 3,2 6,6 8,11 2,6 4,13 5,22 1,8 2,19 2,33 0,12 -1,23 -2,32 -1,8 -2,15 -5,20 -2,6 -5,10 -8,12 -3,3 -6,4 -10,4l-308 0 0 210 259 0c4,0 8,1 11,4 4,2 6,6 9,11 2,5 3,12 5,21 1,8 1,19 1,31 0,13 0,24 -1,32 -2,8 -3,15 -5,20 -3,5 -5,9 -9,11 -3,2 -7,4 -11,4l-259 0 0 242 310 0c4,0 8,1 11,4 3,2 6,6 8,12 2,5 4,12 5,21 1,9 2,19 2,32zm-721 45c0,5 -1,9 -4,12 -2,4 -7,7 -13,9 -7,2 -15,4 -26,5 -11,1 -24,2 -41,2 -16,0 -29,-1 -40,-2 -11,-1 -19,-3 -25,-5 -6,-2 -11,-5 -13,-9 -3,-3 -5,-7 -5,-12l0 -701 -1 0 -249 701c-2,5 -4,10 -8,14 -5,4 -10,7 -17,9 -7,2 -16,4 -26,4 -11,1 -24,1 -39,1 -15,0 -28,0 -38,-1 -11,-2 -20,-3 -27,-6 -6,-2 -12,-5 -16,-9 -4,-3 -7,-8 -8,-12l-240 -701 -2 0 0 701c0,5 -1,9 -3,12 -3,4 -7,7 -14,9 -7,2 -15,4 -26,5 -10,1 -24,2 -40,2 -16,0 -30,-1 -40,-2 -11,-1 -20,-3 -26,-5 -6,-2 -11,-5 -13,-9 -3,-3 -4,-7 -4,-12l0 -768c0,-23 6,-40 18,-52 12,-12 28,-18 48,-18l115 0c20,0 38,2 52,5 15,4 28,9 39,17 10,7 19,18 26,30 7,13 14,29 19,47l186 514 2 0 193 -512c5,-19 12,-35 19,-48 7,-12 15,-23 24,-31 9,-8 20,-13 32,-17 12,-3 27,-5 43,-5l118 0c13,0 23,2 31,5 9,3 16,7 22,14 5,5 10,13 12,21 3,9 5,19 5,30l0 768zm-1215 2c0,4 -1,8 -4,11 -2,4 -7,6 -13,9 -7,2 -16,3 -27,5 -12,1 -26,1 -42,1 -17,0 -31,0 -43,-1 -11,-2 -20,-3 -26,-5 -7,-3 -12,-5 -15,-9 -3,-3 -4,-7 -4,-11l0 -694 -322 0 0 694c0,4 -1,8 -4,11 -3,4 -8,6 -15,9 -6,2 -15,3 -26,5 -11,1 -25,1 -42,1 -17,0 -31,0 -43,-1 -11,-2 -20,-3 -27,-5 -6,-3 -11,-5 -13,-9 -3,-3 -5,-7 -5,-11l0 -785c0,-18 5,-32 15,-41 9,-9 21,-14 37,-14l569 0c16,0 28,5 37,14 9,9 13,23 13,41l0 785zm-1025 -410c0,-45 -3,-86 -10,-123 -7,-38 -20,-69 -37,-96 -17,-26 -39,-47 -68,-61 -28,-14 -64,-22 -106,-22 -43,0 -79,9 -108,25 -29,16 -52,38 -70,65 -17,27 -30,58 -37,94 -7,37 -11,75 -11,115 0,48 4,90 11,127 7,38 19,70 36,97 16,26 39,46 67,61 29,13 64,21 107,21 43,0 79,-8 108,-25 29,-16 52,-37 70,-65 18,-27 30,-59 37,-96 8,-37 11,-76 11,-117zm184 -9c0,71 -8,135 -26,192 -18,56 -44,104 -80,143 -35,39 -78,69 -130,90 -51,21 -111,31 -179,31 -67,0 -126,-9 -175,-26 -50,-18 -92,-44 -125,-81 -34,-35 -59,-81 -75,-137 -17,-55 -25,-121 -25,-197 0,-69 9,-132 26,-188 18,-55 45,-103 80,-142 35,-39 78,-69 130,-89 52,-21 112,-32 180,-32 65,0 123,9 173,26 50,17 91,44 125,80 33,36 59,81 76,136 17,55 25,120 25,194zm-985 419c0,4 -1,8 -4,11 -2,4 -7,6 -14,9 -6,2 -15,3 -27,5 -11,1 -25,1 -42,1 -17,0 -32,0 -43,-1 -11,-2 -20,-3 -26,-5 -7,-3 -12,-5 -14,-9 -3,-3 -4,-7 -4,-11l0 -697 -185 0c-12,102 -25,191 -38,267 -12,76 -26,141 -41,195 -15,55 -31,99 -48,134 -18,35 -38,62 -60,82 -23,21 -48,34 -77,42 -28,7 -60,11 -96,11 -7,0 -13,-1 -18,-2 -5,-2 -8,-5 -11,-10 -3,-5 -5,-12 -7,-21 -1,-9 -2,-20 -2,-34 0,-19 1,-34 2,-46 1,-12 2,-21 4,-27 2,-7 5,-11 9,-13 3,-2 8,-4 13,-4 13,0 27,-2 39,-8 13,-5 25,-16 37,-33 12,-16 23,-39 34,-69 11,-30 22,-69 32,-118 11,-49 21,-108 32,-178 10,-70 21,-153 31,-249 3,-23 8,-39 16,-48 8,-9 20,-14 36,-14l422 0c16,0 29,5 37,14 9,9 13,23 13,41l0 785zm-902 -47c0,13 0,24 -2,33 -1,8 -2,15 -5,21 -2,5 -5,9 -8,11 -3,3 -7,4 -11,4l-432 0c-15,0 -27,-4 -37,-13 -10,-9 -15,-23 -15,-42l0 -752c0,-19 5,-33 15,-42 10,-9 22,-13 37,-13l430 0c4,0 8,1 11,4 3,2 5,6 8,11 2,6 4,13 5,22 1,8 1,19 1,33 0,12 0,23 -1,32 -1,8 -3,15 -5,20 -3,6 -5,10 -8,12 -3,3 -7,4 -11,4l-307 0 0 210 259 0c4,0 7,1 11,4 3,2 6,6 8,11 2,5 4,12 5,21 1,8 2,19 2,31 0,13 -1,24 -2,32 -1,8 -3,15 -5,20 -2,5 -5,9 -8,11 -4,2 -7,4 -11,4l-259 0 0 242 309 0c4,0 8,1 11,4 3,2 6,6 8,12 3,5 4,12 5,21 2,9 2,19 2,32zm-855 -183c0,-20 -4,-38 -10,-54 -7,-16 -17,-29 -29,-40 -13,-10 -30,-19 -50,-24 -20,-6 -45,-9 -78,-9l-103 0 0 245 126 0c25,0 45,-2 62,-7 16,-5 31,-13 43,-23 12,-10 22,-22 29,-37 6,-15 10,-32 10,-51zm-45 -370c0,-17 -3,-33 -8,-46 -5,-14 -13,-26 -24,-35 -11,-9 -24,-16 -40,-21 -16,-4 -38,-7 -65,-7l-88 0 0 224 97 0c26,0 46,-3 61,-9 15,-6 27,-14 37,-25 10,-10 18,-23 23,-37 4,-14 7,-28 7,-44zm226 363c0,31 -4,59 -12,84 -9,25 -21,47 -35,66 -15,19 -33,35 -53,49 -21,14 -44,25 -69,34 -24,9 -51,16 -79,20 -28,4 -60,6 -94,6l-229 0c-15,0 -27,-4 -37,-13 -10,-9 -15,-23 -15,-42l0 -752c0,-19 5,-33 15,-42 10,-9 22,-13 37,-13l216 0c52,0 97,5 134,14 36,8 67,22 92,40 25,18 44,40 57,68 14,27 20,60 20,97 0,21 -2,40 -8,59 -5,18 -13,35 -23,50 -10,15 -22,29 -37,40 -15,12 -32,21 -51,28 24,5 47,12 68,24 20,11 38,25 53,42 16,18 28,39 37,62 9,24 13,50 13,79zm-801 190c0,13 0,24 -1,33 -1,8 -3,15 -5,21 -2,5 -5,9 -9,11 -3,3 -7,4 -11,4l-432 0c-14,0 -27,-4 -37,-13 -10,-9 -15,-23 -15,-42l0 -752c0,-19 5,-33 15,-42 10,-9 23,-13 37,-13l430 0c4,0 8,1 11,4 3,2 6,6 8,11 2,6 4,13 5,22 1,8 2,19 2,33 0,12 -1,23 -2,32 -1,8 -3,15 -5,20 -2,6 -5,10 -8,12 -3,3 -7,4 -11,4l-307 0 0 210 259 0c4,0 8,1 11,4 3,2 6,6 8,11 3,5 4,12 5,21 1,8 2,19 2,31 0,13 -1,24 -2,32 -1,8 -2,15 -5,20 -2,5 -5,9 -8,11 -3,2 -7,4 -11,4l-259 0 0 242 309 0c5,0 8,1 11,4 4,2 7,6 9,12 2,5 4,12 5,21 1,9 1,19 1,32zm-935 -651l-201 0c-8,67 -16,127 -24,178 -8,51 -16,96 -23,134 -8,39 -16,72 -24,100 -8,28 -16,52 -25,73 -8,20 -17,37 -25,52 -9,15 -19,28 -28,40l350 0 0 -577zm280 923c0,4 -1,8 -3,11 -2,3 -6,5 -12,7 -6,3 -13,4 -23,5 -10,1 -22,2 -38,2 -15,0 -27,-1 -37,-2 -9,-1 -17,-2 -23,-5 -6,-2 -10,-4 -13,-7 -2,-3 -3,-7 -3,-11l0 -203 -574 0 0 203c0,4 -2,8 -4,11 -3,3 -7,5 -13,7 -6,3 -14,4 -23,5 -10,1 -23,2 -38,2 -15,0 -27,-1 -37,-2 -10,-1 -18,-2 -24,-5 -6,-2 -10,-4 -12,-7 -2,-3 -4,-7 -4,-11l0 -310c-1,-13 2,-22 7,-28 6,-5 14,-8 25,-8l40 0c11,-15 21,-31 31,-47 9,-16 19,-35 27,-57 9,-22 18,-48 27,-78 8,-30 17,-68 25,-112 9,-43 17,-95 26,-156 9,-60 18,-130 27,-212 3,-20 8,-34 15,-43 8,-9 20,-14 35,-14l440 0c16,0 28,5 37,14 9,9 13,23 13,41l0 664 74 0c12,0 20,3 25,9 5,7 7,16 7,27l0 310z"/>
  </g>
 </g>
</svg>
