<svg xmlns="http://www.w3.org/2000/svg" viewBox="0 0 164.96 50.04" height="40px">
  <title>logo_footer</title>
  <g id="Layer_2" data-name="Layer 2">
    <g id="Слой_1" data-name="Слой 1">
      <g id="Слой_1-2" data-name="Слой_1" opacity="0.75">
        <path d="M12.68,39.18l39.32,0a4,4,0,0,0,3-1.84c1,1.67,1.16,3,.28,4.11L50,48.11A4.05,4.05,0,0,1,46.84,50H8.54a4,4,0,0,1-.09-3.49Z" fill="#fff"/>
        <path d="M62.23,49.1V23a.5.5,0,0,1,.17-.37.86.86,0,0,1,.48-.26,3.45,3.45,0,0,1,.91-.17c.37,0,.85-.06,1.42-.06s1,0,1.42.06a3,3,0,0,1,.88.17.86.86,0,0,1,.48.26.6.6,0,0,1,.14.37V37.62c0,.45,0,.94,0,1.45s0,1-.06,1.5h0c.26-.45.57-1,1-1.56s.79-1.16,1.22-1.73L80.29,23a4.36,4.36,0,0,1,.34-.37,1.11,1.11,0,0,1,.48-.26,2.57,2.57,0,0,1,.74-.17c.31,0,.68,0,1.16,0s1,0,1.36.06a3,3,0,0,1,.85.17.78.78,0,0,1,.43.26.61.61,0,0,1,.14.4V49.1a.51.51,0,0,1-.17.4,1.08,1.08,0,0,1-.48.26,4.31,4.31,0,0,1-.91.17c-.34,0-.79.06-1.36.06h-.09c-.57,0-1,0-1.39-.06a4.37,4.37,0,0,1-.88-.17,1,1,0,0,1-.45-.26.61.61,0,0,1-.14-.4V34.59c0-.57,0-1.11,0-1.64s0-1,.06-1.42h0c-.14.23-.28.45-.43.71s-.34.54-.54.82-.37.6-.6.91a9.8,9.8,0,0,1-.62.88L67.73,49.13a1.81,1.81,0,0,1-.37.43,1.11,1.11,0,0,1-.48.26,2.69,2.69,0,0,1-.74.11,10.28,10.28,0,0,1-1.08.06H65c-.54,0-1,0-1.33-.06a4,4,0,0,1-.85-.17.81.81,0,0,1-.43-.28A1.13,1.13,0,0,1,62.23,49.1Zm102.73,0v0h0a.6.6,0,0,1-.11.4,1.27,1.27,0,0,1-.48.26,5.09,5.09,0,0,1-.94.17c-.37,0-.85.06-1.45.06h-.11c-.62,0-1.11,0-1.5-.06a5.09,5.09,0,0,1-.94-.17,1.35,1.35,0,0,1-.54-.31,1.44,1.44,0,0,1-.26-.51l-2.35-6.15a11.91,11.91,0,0,0-1-2.24,5.66,5.66,0,0,0-1.19-1.47,4,4,0,0,0-1.45-.79,7.69,7.69,0,0,0-1.87-.23h-1.3v11a.61.61,0,0,1-.14.4,1.08,1.08,0,0,1-.48.28,4.83,4.83,0,0,1-.88.17c-.37,0-.82.06-1.39.06h-.11c-.54,0-1,0-1.36-.06a5.21,5.21,0,0,1-.91-.17,1.27,1.27,0,0,1-.48-.28.61.61,0,0,1-.14-.4V23a.61.61,0,0,1,.14-.4,1,1,0,0,1,.48-.26,3.45,3.45,0,0,1,.91-.17c.4,0,.85-.06,1.42-.06s1,0,1.45.06a3.21,3.21,0,0,1,.88.17.86.86,0,0,1,.48.26.61.61,0,0,1,.14.4V33.37h1.3a5.47,5.47,0,0,0,1.76-.26,4,4,0,0,0,1.39-.79A6.05,6.05,0,0,0,155,30.88a14.67,14.67,0,0,0,1-2.18l2-5.5a4.26,4.26,0,0,1,.26-.51,1.43,1.43,0,0,1,.51-.31,3.46,3.46,0,0,1,.94-.17c.37,0,.88-.06,1.53-.06s1,0,1.42.06a5.1,5.1,0,0,1,.91.14.68.68,0,0,1,.43.26.65.65,0,0,1,.11.4,3.18,3.18,0,0,1-.09.68c-.09.28-.2.62-.37,1.08l-1.93,4.9A20.32,20.32,0,0,1,160.57,32a9,9,0,0,1-1.13,1.62,5.64,5.64,0,0,1-1.25,1.11,7.61,7.61,0,0,1-1.45.71h0a10.75,10.75,0,0,1,1.62.82,7.41,7.41,0,0,1,1.36,1.16,10.85,10.85,0,0,1,1.22,1.73c.37.68.77,1.53,1.19,2.52l2.35,5.7a8,8,0,0,1,.43,1.22A1.75,1.75,0,0,1,165,49.08ZM136.44,50h-.09c-.54,0-1,0-1.39-.06a4.83,4.83,0,0,1-.88-.17,1.08,1.08,0,0,1-.48-.26.49.49,0,0,1-.14-.4V26.94H122.7V49.1a.61.61,0,0,1-.14.4,1.53,1.53,0,0,1-.48.26,5.21,5.21,0,0,1-.91.17c-.37,0-.82.06-1.36.06h-.11c-.54,0-1,0-1.36-.06a4.31,4.31,0,0,1-.91-.17,1.08,1.08,0,0,1-.48-.26.61.61,0,0,1-.14-.4V24a1.74,1.74,0,0,1,.48-1.33,1.8,1.8,0,0,1,1.25-.43h19.11a1.71,1.71,0,0,1,1.25.43,1.73,1.73,0,0,1,.45,1.33V49.1a.61.61,0,0,1-.14.4,1.12,1.12,0,0,1-.45.26,5.21,5.21,0,0,1-.91.17C137.46,50,137,50,136.44,50Zm-26.73,0h-.11a9.3,9.3,0,0,1-1.39-.09,3.45,3.45,0,0,1-.91-.17.87.87,0,0,1-.45-.26.53.53,0,0,1-.14-.4V37.94H95.88V49.08a.53.53,0,0,1-.14.4.77.77,0,0,1-.45.26,3.45,3.45,0,0,1-.91.17A9.16,9.16,0,0,1,93,50H92.9a9.16,9.16,0,0,1-1.36-.09,3.22,3.22,0,0,1-.91-.17.86.86,0,0,1-.48-.26.53.53,0,0,1-.14-.4V23a.51.51,0,0,1,.14-.37,1.08,1.08,0,0,1,.48-.28,8.9,8.9,0,0,1,.91-.17c.37,0,.85-.06,1.42-.06s1,0,1.42.06.68.11.91.17a1,1,0,0,1,.45.28.51.51,0,0,1,.14.37V33.17h10.83V23a.51.51,0,0,1,.14-.37,1.13,1.13,0,0,1,.45-.28c.23-.06.54-.11.91-.17s.85-.06,1.45-.06,1,0,1.39.06a8.9,8.9,0,0,1,.91.17,1.27,1.27,0,0,1,.48.28.67.67,0,0,1,.14.37V49.08a.68.68,0,0,1-.14.4,1,1,0,0,1-.48.26,3.22,3.22,0,0,1-.91.17A8.49,8.49,0,0,1,109.71,50Z" fill="#fff"/>
        <path d="M42.93,38.08,23.28,4a4,4,0,0,0-3.12-1.7c1-1.7,2-2.52,3.4-2.3L32,1.28a4.11,4.11,0,0,1,3.2,1.84h0L54.32,36.29a3.81,3.81,0,0,1-3,1.79Z" fill="#fff"/>
        <path d="M26.86,12.45,7.18,46.5A4,4,0,0,0,7.27,50c-2,0-3.2-.48-3.71-1.81L.44,40.32a4.11,4.11,0,0,1,0-3.69h0L19.57,3.47a3.89,3.89,0,0,1,3.06,1.67Z" fill="#fff"/>
      </g>
    </g>
  </g>
</svg>
